<svg xmlns="http://www.w3.org/2000/svg" width="393.79" height="177.18" viewBox="0 0 393.79 177.18">
  <defs>
    <style>
      .cls-1, .cls-12, .cls-14, .cls-16, .cls-17, .cls-2, .cls-3, .cls-4, .cls-5, .cls-9 {
        fill: none;
      }

      .cls-1, .cls-12 {
        stroke: #f98e23;
      }

      .cls-1, .cls-2, .cls-3, .cls-4, .cls-5 {
        stroke-linecap: square;
      }

      .cls-1, .cls-14, .cls-2, .cls-3, .cls-4, .cls-5, .cls-7, .cls-8 {
        stroke-linejoin: round;
      }

      .cls-16, .cls-2 {
        stroke: #1b9e77;
      }

      .cls-14, .cls-3 {
        stroke: #54568c;
      }

      .cls-4 {
        stroke: #fff;
        stroke-width: 3px;
      }

      .cls-17, .cls-5, .cls-8 {
        stroke: #e33237;
      }

      .cls-6 {
        fill: #e33237;
      }

      .cls-10, .cls-7, .cls-8 {
        fill: #fff;
      }

      .cls-7 {
        stroke: #000;
      }

      .cls-11 {
        fill: #f98e23;
      }

      .cls-12, .cls-16, .cls-17 {
        stroke-miterlimit: 10;
      }

      .cls-13 {
        fill: #54568c;
      }

      .cls-15 {
        fill: #1b9e77;
      }
    </style>
  </defs>
  <g id="Layer_2" data-name="Layer 2">
    <g id="Layer_1-2" data-name="Layer 1">
      <g>
        <g>
          <path class="cls-1" d="M60.32,39.76h-.78l-.78,0-.78,0-.78,0-.78.06-.78.06-.78.08-.78.1-.77.1-.77.12-.77.12-.77.15-.77.15-.76.16-.76.18-.76.19-.76.2-.75.21-.75.23"/>
          <path class="cls-1" d="M60.32,39.76l-1,2.14-1,2-1.07,1.76-1.13,1.57L55,48.57l-1.24,1.2-1.3,1-1.36.82-1.41.65-1.47.45L46.67,53l-1.59.08L43.44,53l-1.7-.29L40,52.18l-1.82-.67-1.87-.86-1.94-1-2-1.22"/>
          <path class="cls-1" d="M75,42l-.75-.23-.75-.21-.76-.2-.76-.19L71.17,41l-.76-.16-.77-.15-.77-.15-.77-.12-.77-.12-.77-.1-.78-.1L65,40l-.78-.06-.78-.06-.78,0-.78,0-.78,0h-.78"/>
          <path class="cls-1" d="M45.69,42,45,42.2l-.74.25-.74.26-.73.27-.73.28-.73.3-.72.3-.71.32-.71.33-.7.34-.7.35-.7.36-.68.37-.69.38-.67.4-.67.4-.66.42L33,48l-.65.44"/>
          <path class="cls-1" d="M45.69,42l-.28,2.32L45,46.45l-.5,2-.61,1.83L43.19,52l-.84,1.51-.94,1.35-1,1.19L39.2,57l-1.27.87-1.39.71-1.49.54-1.6.38-1.72.23-1.82,0L28,59.72l-2-.26L23.78,59l-2.26-.58"/>
          <path class="cls-1" d="M45.69,42l1.54,1.76,1.54,1.56,1.54,1.37,1.54,1.17,1.54,1,1.54.78,1.54.59,1.54.39,1.54.2h1.54l1.54-.2,1.54-.39,1.54-.59,1.54-.78,1.54-1,1.54-1.17,1.54-1.37,1.54-1.56L75,42"/>
          <path class="cls-1" d="M32.36,48.39l-.64.44-.63.46-.63.46-.62.48-.62.48-.6.5-.6.5-.59.51-.58.53-.57.53-.57.54-.55.55-.55.56-.54.56-.53.58-.52.58-.51.59-.5.6-.49.61"/>
          <path class="cls-1" d="M32.36,48.39l.42,2.3L33,52.87l.11,2.05,0,1.94-.2,1.81-.35,1.69-.5,1.57-.65,1.45-.81,1.33-1,1.2L28.53,67l-1.27,1-1.42.84-1.57.72-1.72.59-1.88.47-2,.35-2.18.23-2.34.11"/>
          <path class="cls-1" d="M21.52,58.45l-.48.61-.48.63-.46.62-.45.64-.45.65-.43.65-.42.65-.41.67-.4.67-.39.68-.38.68-.37.69L16,67l-.35.7-.34.71L15,69.1l-.31.71-.31.72-.29.73"/>
          <path class="cls-1" d="M21.52,58.45l1.07,2.07.9,2,.71,1.93.53,1.86.35,1.8.16,1.71v1.65L25,73.06l-.38,1.5L24.08,76l-.74,1.36-.93,1.29L21.3,79.87,20,81l-1.47,1.07-1.65,1L15.05,84l-2,.86-2.2.79"/>
          <path class="cls-1" d="M14.12,71.26l-.28.73-.27.73-.25.74-.25.74-.23.75-.22.75-.21.75-.2.76L12,78l-.17.76-.16.76-.15.77L11.4,81l-.13.77-.11.77-.1.78-.09.78-.08.77-.06.78"/>
          <path class="cls-1" d="M10.83,85.68l-.05.78,0,.78,0,.78,0,.78v1.57l0,.78,0,.78,0,.78.06.78.07.78L11,95l.1.78.11.77.12.78.13.77.14.77.16.76.17.76"/>
          <path class="cls-1" d="M10.83,85.68l2.06,1.11,1.87,1.15,1.67,1.2,1.49,1.24,1.29,1.29L20.32,93l.91,1.37L22,95.78l.53,1.46.34,1.5.16,1.54,0,1.59-.23,1.63-.42,1.68-.61,1.71-.8,1.77-1,1.8-1.19,1.85-1.37,1.9"/>
          <path class="cls-1" d="M11.94,100.43l.18.76.19.76.2.76.22.75.22.75.24.74.25.74.27.74.27.73.29.73.29.72.31.72.32.71.33.71.34.7.36.7.36.69.37.69.39.68"/>
          <path class="cls-1" d="M17.34,114.21l.4.67.4.67.42.66.43.65.43.65.45.64.46.63.47.63.48.62.48.61.5.6.51.6.51.58.53.58.53.57.54.57.55.55.56.55.57.53"/>
          <path class="cls-1" d="M17.34,114.21l2.33-.25,2.19-.1,2.06,0,1.92.18,1.8.34,1.66.47,1.53.62,1.39.76,1.26.9,1.13,1,1,1.19.86,1.33.73,1.48.6,1.62.46,1.77.33,1.9.2,2,.06,2.2-.06,2.33"/>
          <path class="cls-1" d="M26.56,125.77l.58.53.59.52.59.5.6.5.61.49.62.48.62.47.63.46.64.45.65.44.65.43.66.42.66.41.68.4.67.39.69.38.69.36.7.36.7.34"/>
          <path class="cls-1" d="M38.79,134.1l.7.34.72.32.71.31.72.3.73.29.73.28.74.26.74.26.74.24.75.23.75.22.75.2.76.2.76.18.76.17.76.16.77.15.77.13.77.13"/>
          <path class="cls-1" d="M38.79,134.1l1.78-1.51,1.76-1.31,1.72-1.13,1.7-.93,1.67-.73,1.64-.55,1.61-.35,1.58-.16,1.55,0,1.52.23,1.5.42,1.46.62,1.44.81,1.4,1,1.38,1.2,1.35,1.39,1.32,1.58,1.29,1.78,1.26,2"/>
          <path class="cls-1" d="M52.92,138.47l.78.11.77.09.78.09.78.07.78.06.78.05.78,0,.78,0h2.34l.78,0,.78,0,.78-.05.78-.06.78-.07.78-.09.77-.09.78-.11"/>
          <path class="cls-1" d="M67.72,138.47l.77-.13.77-.13.77-.15.76-.16.76-.17.76-.18.76-.2.75-.2.75-.22.75-.23.74-.24.74-.26.74-.26.73-.28.73-.29.72-.3.71-.31.72-.32.7-.34"/>
          <path class="cls-1" d="M67.72,138.47l.62-2.26.71-2.08.79-1.9.88-1.72,1-1.55,1-1.37,1.13-1.2,1.22-1,1.3-.85,1.39-.66,1.47-.5,1.56-.31,1.64-.14,1.73,0,1.81.21,1.9.39,2,.56,2.06.74,2.16.92"/>
          <path class="cls-1" d="M81.85,134.1l.7-.34.7-.36.69-.36.68-.38.68-.39.67-.4.67-.41.66-.42.65-.43.65-.44.64-.45.63-.46.62-.47.62-.48.61-.49.6-.5.59-.5.59-.52.58-.53"/>
          <path class="cls-1" d="M94.08,125.77l.56-.53.56-.55.56-.55.54-.57.53-.57.53-.58.51-.58.51-.6.5-.6.48-.61.48-.62.47-.63.46-.63.44-.64.44-.65.43-.65.42-.66.4-.67.4-.67"/>
          <path class="cls-1" d="M94.08,125.77l-.76-2.21-.58-2.12-.42-2-.24-1.92L92,115.68l.09-1.72.26-1.63.43-1.53.6-1.43.77-1.33.94-1.24,1.11-1.14,1.28-1,1.45-.94,1.61-.84,1.79-.75,2-.65,2.12-.55,2.29-.46"/>
          <path class="cls-1" d="M103.3,114.21l.38-.68.38-.69.36-.69.36-.7.34-.7.33-.71.32-.71.31-.72.29-.72.29-.73.27-.73.27-.74.25-.74.24-.74.22-.75.22-.75.2-.76.19-.76.18-.76"/>
          <path class="cls-1" d="M103.3,114.21l-1.37-1.9-1.19-1.85-1-1.8-.8-1.77-.61-1.71-.42-1.68-.23-1.63,0-1.59.15-1.54.35-1.5.53-1.46.72-1.42.92-1.37,1.1-1.32,1.3-1.29,1.49-1.24,1.67-1.2,1.87-1.15,2.06-1.11"/>
          <path class="cls-1" d="M108.7,100.43l.17-.76.16-.76.14-.77.13-.77.12-.78.11-.77.1-.78.08-.77.07-.78.06-.78,0-.78,0-.78,0-.78V88l0-.78,0-.78,0-.78"/>
          <path class="cls-1" d="M108.7,100.43,106.83,99l-1.67-1.42-1.48-1.43-1.29-1.45-1.09-1.46-.89-1.48-.7-1.49-.51-1.51-.31-1.52-.11-1.53.08-1.55.27-1.57L99.6,81l.67-1.59.86-1.61,1.05-1.62,1.25-1.64,1.45-1.65,1.64-1.67"/>
          <path class="cls-1" d="M109.81,85.68l-.07-.78-.07-.77-.09-.78-.1-.78-.12-.77-.12-.77-.14-.77-.15-.77-.16-.76-.17-.76-.19-.76-.2-.76L108,75.7,107.8,75l-.23-.75-.25-.74-.25-.74L106.8,72l-.28-.73"/>
          <path class="cls-1" d="M109.81,85.68l-2.2-.79-2-.86-1.84-.93-1.65-1L100.63,81l-1.29-1.15-1.11-1.22-.93-1.29L96.56,76,96,74.56l-.38-1.5-.2-1.58V69.83l.16-1.71.35-1.8.53-1.86.71-1.93.9-2,1.07-2.07"/>
          <path class="cls-1" d="M106.52,71.26l-.29-.73-.31-.72-.31-.71-.33-.71-.33-.71-.35-.7-.36-.69-.37-.69-.38-.68-.39-.68-.4-.67-.41-.67-.42-.65-.44-.65L101,61l-.45-.64-.46-.62-.48-.63-.48-.61"/>
          <path class="cls-1" d="M106.52,71.26l-2.34-.11L102,70.92l-2-.35-1.88-.47-1.72-.59-1.57-.72L93.38,68l-1.27-1L91,65.91l-1-1.2-.81-1.33-.65-1.45-.51-1.57-.34-1.69-.2-1.81,0-1.94.11-2.05.26-2.18.42-2.3"/>
          <path class="cls-1" d="M99.12,58.45l-.49-.61-.5-.6-.51-.59-.52-.58-.53-.58L96,54.93l-.55-.56-.55-.55-.57-.54-.57-.53-.58-.53-.59-.51-.6-.5-.61-.5-.61-.48-.62-.48-.63-.46-.63-.46-.64-.44"/>
          <path class="cls-1" d="M99.12,58.45,96.86,59l-2.16.43-2,.26-1.93.1-1.83,0-1.71-.23-1.6-.38-1.49-.54-1.39-.71L81.44,57l-1.16-1-1-1.19-.94-1.35L77.45,52l-.72-1.68-.61-1.83-.5-2-.39-2.16L75,42"/>
          <path class="cls-1" d="M88.28,48.39,87.63,48,87,47.53l-.66-.42-.67-.4-.68-.4-.68-.38-.68-.37-.7-.36-.7-.35-.7-.34-.71-.33-.71-.32-.72-.3-.73-.3L77.9,43l-.73-.27-.74-.26-.74-.25L75,42"/>
          <path class="cls-1" d="M60.32,39.76l1,2.14,1,2,1.07,1.76,1.13,1.57,1.18,1.39,1.24,1.2,1.3,1,1.35.82,1.42.65,1.47.45L74,53l1.59.08L77.2,53l1.7-.29,1.76-.48,1.82-.67,1.87-.86,1.94-1,2-1.22"/>
        </g>
        <g>
          <path class="cls-2" d="M59.82,39H59l-.78,0-.78,0-.78,0-.78.06-.78.06-.78.08-.78.1-.77.1-.77.12-.77.12-.77.15-.77.15-.76.16-.76.18-.76.19-.76.2-.75.21-.75.23"/>
          <path class="cls-2" d="M59.82,39l-1,2.14-1,1.95-1.07,1.76-1.13,1.57-1.18,1.39L53.24,49l-1.3,1-1.36.82-1.41.65-1.47.45-1.53.27-1.59.08-1.64-.11-1.7-.29-1.76-.48-1.82-.67-1.87-.86-1.94-1-2-1.22"/>
          <path class="cls-2" d="M74.45,41.17l-.75-.23L73,40.73l-.76-.2-.76-.19-.76-.18L69.91,40l-.77-.15-.77-.15-.77-.12-.77-.12-.77-.1-.78-.1-.78-.08-.78-.06-.78-.06-.78,0-.78,0-.78,0h-.78"/>
          <path class="cls-2" d="M45.19,41.17l-.74.23-.74.25-.74.26-.73.27-.73.28-.73.3-.72.3-.71.32-.71.33-.7.34-.7.35-.7.36-.68.37-.69.38-.67.4-.67.4-.66.42-.66.42-.65.44"/>
          <path class="cls-2" d="M45.19,41.17l-.28,2.32-.39,2.16-.5,2-.61,1.83-.72,1.68-.84,1.51L40.91,54l-1,1.19-1.16,1-1.27.87L36,57.82l-1.49.54-1.6.38L31.23,59,29.41,59l-1.93-.1-2-.26-2.16-.43L21,57.65"/>
          <path class="cls-2" d="M45.19,41.17l1.54,1.76,1.54,1.56,1.54,1.37L51.35,47l1.54,1,1.54.78,1.54.59,1.54.39,1.54.2h1.54l1.54-.2,1.54-.39,1.54-.59L66.75,48l1.54-1,1.54-1.17,1.54-1.37,1.54-1.56,1.54-1.76"/>
          <path class="cls-2" d="M31.86,47.59l-.64.44-.63.46L30,49l-.62.48-.62.48-.6.5-.6.5-.59.51-.58.53-.57.53-.57.54-.55.55-.55.56-.54.56-.53.58-.52.58-.51.59-.5.6-.49.61"/>
          <path class="cls-2" d="M31.86,47.59l.42,2.3.26,2.18.11,2,0,1.94-.2,1.81-.35,1.69-.5,1.57-.65,1.45-.81,1.33-1,1.2L28,66.19l-1.27,1L25.34,68l-1.57.72-1.72.59-1.88.47-2,.35L16,70.35l-2.34.11"/>
          <path class="cls-2" d="M21,57.65l-.48.61-.48.63-.46.62-.45.64-.45.65-.43.65-.42.65-.41.67-.4.67-.39.68-.38.68-.37.69-.36.69-.35.7-.34.71-.32.71-.31.71-.31.72-.29.73"/>
          <path class="cls-2" d="M21,57.65l1.07,2.07.9,2,.71,1.93.53,1.86.35,1.8L24.74,69v1.65l-.2,1.58-.38,1.5-.57,1.44-.74,1.36-.93,1.29L20.8,79.07l-1.29,1.15L18,81.29l-1.65,1-1.84.93-2,.86-2.2.79"/>
          <path class="cls-2" d="M13.62,70.46l-.28.73-.27.73-.25.74-.25.74-.23.75-.22.75-.21.75-.2.76-.19.76-.17.76-.16.76-.15.77-.14.77-.13.77-.11.77-.1.78-.09.78-.08.77-.06.78"/>
          <path class="cls-2" d="M10.33,84.88l-.05.78,0,.78,0,.78,0,.78v1.57l0,.78,0,.78,0,.78.06.78.07.78.08.77.1.78.11.77.12.78.13.77.14.77.16.76.17.76"/>
          <path class="cls-2" d="M10.33,84.88,12.39,86l1.87,1.15,1.67,1.2,1.49,1.24,1.29,1.29,1.11,1.32.91,1.37L21.46,95,22,96.44l.34,1.5.16,1.54,0,1.59-.23,1.63-.42,1.68-.61,1.71-.8,1.77-1,1.8-1.19,1.85-1.37,1.9"/>
          <path class="cls-2" d="M11.44,99.63l.18.76.19.76.2.76.22.75.22.75.24.74.25.74.27.74.27.73.29.73.29.72.31.72.32.71L15,110l.34.7.36.7.36.69.37.69.39.68"/>
          <path class="cls-2" d="M16.84,113.41l.4.67.4.67.42.66.43.65.43.65.45.64.46.63.47.63.48.62.48.61.5.6.51.6.51.58.53.58.53.57.54.57.55.55.56.55.57.53"/>
          <path class="cls-2" d="M16.84,113.41l2.33-.25,2.19-.1,2.06,0,1.92.18,1.8.34,1.66.47,1.53.62,1.39.76,1.26.9,1.13,1.05,1,1.19L36,120l.73,1.48.6,1.62.46,1.77.33,1.9.2,2.05.06,2.2-.06,2.33"/>
          <path class="cls-2" d="M26.06,125l.58.53.59.52.59.5.6.5.61.49.62.48.62.47.63.46.64.45.65.44.65.43.66.42.66.41.68.4.67.39.69.38.69.36.7.36.7.34"/>
          <path class="cls-2" d="M38.29,133.3l.7.34.72.32.71.31.72.3.73.29.73.28.74.26.74.26.74.24.75.23.75.22.75.2.76.2.76.18.76.17.76.16.77.15.77.13.77.13"/>
          <path class="cls-2" d="M38.29,133.3l1.78-1.51,1.76-1.31,1.72-1.13,1.7-.93,1.67-.73,1.64-.55,1.61-.35,1.58-.16,1.55,0,1.52.23,1.5.42,1.46.62,1.44.81,1.4,1L62,131l1.35,1.39,1.32,1.58L66,135.7l1.26,2"/>
          <path class="cls-2" d="M52.42,137.67l.78.11.77.09.78.09.78.07.78.06.78,0,.78,0,.78,0H61l.78,0,.78,0,.78,0,.78-.06.78-.07.78-.09.77-.09.78-.11"/>
          <path class="cls-2" d="M67.22,137.67l.77-.13.77-.13.77-.15.76-.16.76-.17.76-.18.76-.2.75-.2.75-.22.75-.23.74-.24.74-.26.74-.26.73-.28.73-.29.72-.3.71-.31.72-.32.7-.34"/>
          <path class="cls-2" d="M67.22,137.67l.62-2.26.71-2.08.79-1.9.88-1.72,1-1.55,1-1.37,1.13-1.2,1.22-1,1.3-.85,1.39-.66,1.47-.5,1.56-.31,1.64-.14,1.73,0,1.81.21,1.9.39,2,.56,2.06.74,2.16.92"/>
          <path class="cls-2" d="M81.35,133.3l.7-.34.7-.36.69-.36.68-.38.68-.39.67-.4.67-.41.66-.42.65-.43.65-.44.64-.45.63-.46L90,128l.62-.48.61-.49.6-.5.59-.5.59-.52.58-.53"/>
          <path class="cls-2" d="M93.58,125l.56-.53.56-.55.56-.55.54-.57.53-.57.53-.58.51-.58.51-.6.5-.6.48-.61.48-.62.47-.63.46-.63.44-.64.44-.65.43-.65.42-.66.4-.67.4-.67"/>
          <path class="cls-2" d="M93.58,125l-.76-2.21-.58-2.12-.42-2-.24-1.92-.08-1.82.09-1.72.26-1.63.43-1.53.6-1.43.77-1.33.94-1.24,1.11-1.14,1.28-1,1.45-.94L100,102l1.79-.75,2-.65,2.12-.55,2.29-.46"/>
          <path class="cls-2" d="M102.8,113.41l.38-.68.38-.69.36-.69.36-.7.34-.7.33-.71.32-.71.31-.72.29-.72.29-.73.27-.73.27-.74.25-.74.24-.74.22-.75.22-.75.2-.76.19-.76.18-.76"/>
          <path class="cls-2" d="M102.8,113.41l-1.37-1.9-1.19-1.85-1-1.8-.8-1.77-.61-1.71-.42-1.68-.23-1.63,0-1.59.15-1.54.35-1.5L98.18,95l.72-1.42.92-1.37,1.1-1.32,1.3-1.29,1.49-1.24,1.67-1.2L107.25,86l2.06-1.11"/>
          <path class="cls-2" d="M108.2,99.63l.17-.76.16-.76.14-.77.13-.77.12-.78L109,95l.1-.78.08-.77.07-.78.06-.78,0-.78,0-.78,0-.78V87.22l0-.78,0-.78,0-.78"/>
          <path class="cls-2" d="M108.2,99.63l-1.87-1.4-1.67-1.42-1.48-1.43-1.29-1.45-1.09-1.46L99.91,91l-.7-1.49L98.7,88l-.31-1.52-.11-1.53.08-1.55.27-1.57.47-1.58.67-1.59.86-1.61,1.05-1.62,1.25-1.64,1.45-1.65L106,70.46"/>
          <path class="cls-2" d="M109.31,84.88l-.07-.78-.07-.77-.09-.78-.1-.78-.12-.77-.12-.77-.14-.77-.15-.77-.16-.76-.17-.76-.19-.76-.2-.76-.21-.75-.22-.75-.23-.75-.25-.74-.25-.74-.27-.73-.28-.73"/>
          <path class="cls-2" d="M109.31,84.88l-2.2-.79-2-.86-1.84-.93-1.65-1-1.47-1.07-1.29-1.15-1.11-1.22-.93-1.29-.74-1.36-.57-1.44-.38-1.5-.2-1.58V69l.16-1.71.35-1.8.53-1.86.71-1.93.9-2,1.07-2.07"/>
          <path class="cls-2" d="M106,70.46l-.29-.73-.31-.72-.31-.71-.33-.71-.33-.71-.35-.7-.36-.69-.37-.69-.38-.68-.39-.68-.4-.67-.41-.67-.42-.65-.44-.65-.44-.65-.45-.64-.46-.62-.48-.63-.48-.61"/>
          <path class="cls-2" d="M106,70.46l-2.34-.11-2.18-.23-2-.35-1.88-.47-1.72-.59L94.3,68l-1.42-.84-1.27-1L90.5,65.11l-1-1.2-.81-1.33-.65-1.45-.51-1.57-.34-1.69L87,56.06l0-1.94.11-2,.26-2.18.42-2.3"/>
          <path class="cls-2" d="M98.62,57.65,98.13,57l-.5-.6-.51-.59-.52-.58-.53-.58-.54-.56L95,53.57,94.43,53l-.57-.54L93.29,52l-.58-.53-.59-.51-.6-.5-.61-.5-.61-.48L89.68,49l-.63-.46L88.42,48l-.64-.44"/>
          <path class="cls-2" d="M98.62,57.65l-2.26.58-2.16.43-2,.26-1.93.1L88.4,59l-1.71-.23-1.6-.38-1.49-.54-1.39-.71-1.27-.87-1.16-1-1-1.19-.94-1.35L77,51.16l-.72-1.68-.61-1.83-.5-2-.39-2.16-.28-2.32"/>
          <path class="cls-2" d="M87.78,47.59l-.65-.44-.66-.42-.66-.42-.67-.4-.68-.4-.68-.38-.68-.37-.7-.36-.7-.35-.7-.34-.71-.33-.71-.32-.72-.3-.73-.3-.73-.28-.73-.27-.74-.26-.74-.25-.74-.23"/>
          <path class="cls-2" d="M59.82,39l1,2.14,1,1.95,1.07,1.76L64,46.38l1.18,1.39L66.4,49l1.3,1,1.35.82,1.42.65,1.47.45,1.53.27,1.59.08,1.64-.11,1.7-.29,1.76-.48L82,50.71l1.87-.86,1.94-1,2-1.22"/>
        </g>
      </g>
      <g id="axes_2" data-name="axes 2">
        <g>
          <g>
            <path class="cls-1" d="M199.06,39.76h-.78l-.78,0-.78,0-.78,0-.78.06-.78.06-.78.08-.78.1-.77.1-.77.12-.77.12-.77.15-.77.15-.76.16-.76.18-.76.19-.76.2-.75.21-.75.23"/>
            <path class="cls-1" d="M199.06,39.76l-.95,2.14-1,2L196,45.61l-1.13,1.57-1.18,1.39-1.24,1.2-1.3,1-1.36.82-1.41.65-1.47.45-1.53.27-1.59.08L182.18,53l-1.7-.29-1.76-.48-1.82-.67L175,50.65l-1.94-1-2-1.22"/>
            <path class="cls-1" d="M199.06,39.76,200,41.9l1,2,1.07,1.76,1.13,1.57,1.18,1.39,1.24,1.2,1.3,1,1.36.82,1.41.65,1.47.45,1.53.27,1.59.08,1.64-.11,1.7-.29,1.76-.48,1.82-.67,1.87-.86,1.94-1,2-1.22"/>
            <path class="cls-1" d="M213.69,42l-.75-.23-.75-.21-.76-.2-.76-.19-.76-.18-.76-.16-.77-.15-.77-.15-.77-.12-.77-.12-.77-.1-.78-.1-.78-.08-.78-.06-.78-.06-.78,0-.78,0-.78,0h-.78"/>
            <path class="cls-1" d="M184.43,42l-.74.23-.74.25-.74.26-.73.27-.73.28-.73.3-.72.3-.71.32-.71.33-.7.34-.7.35-.7.36-.68.37-.68.38-.68.4-.67.4-.66.42-.66.42-.65.44"/>
            <path class="cls-1" d="M184.43,42,186,43.73l1.54,1.56,1.54,1.37,1.54,1.17,1.54,1,1.54.78,1.54.59,1.54.39,1.54.2h1.54l1.54-.2,1.54-.39,1.54-.59,1.54-.78,1.54-1,1.54-1.17,1.54-1.37,1.54-1.56L213.69,42"/>
            <path class="cls-1" d="M171.1,48.39l-.64.44-.63.46-.63.46-.62.48-.62.48-.6.5-.6.5-.59.51-.58.53-.57.53-.57.54-.55.55-.55.56-.54.56-.53.58-.52.58-.51.59-.5.6-.49.61"/>
            <path class="cls-1" d="M171.1,48.39l.42,2.3.26,2.18.11,2.05,0,1.94-.2,1.81-.34,1.69-.51,1.57-.65,1.45-.81,1.33-1,1.2L167.27,67,166,68l-1.42.84-1.57.72-1.72.59-1.88.47-2,.35-2.18.23-2.34.11"/>
            <path class="cls-1" d="M160.26,58.45l-.48.61-.48.63-.46.62-.45.64-.44.65-.44.65-.42.65-.41.67-.4.67-.39.68-.38.68-.37.69-.36.69-.35.7-.33.71-.33.71-.31.71-.31.72-.29.73"/>
            <path class="cls-1" d="M160.26,58.45l1.07,2.07.9,2,.71,1.93.53,1.86.35,1.8.16,1.71v1.65l-.2,1.58-.38,1.5L162.82,76l-.74,1.36-.93,1.29L160,79.87,158.75,81l-1.47,1.07-1.65,1-1.84.93-2,.86-2.2.79"/>
            <path class="cls-1" d="M152.86,71.26l-.28.73-.27.73-.25.74-.25.74-.23.75-.22.75-.21.75-.2.76-.19.76-.17.76-.16.76-.15.77-.14.77-.12.77-.12.77-.1.78-.09.78-.07.77-.07.78"/>
            <path class="cls-1" d="M152.86,71.26l1.64,1.67L156,74.58l1.25,1.64,1.05,1.62.86,1.61.67,1.59.47,1.58.27,1.57.08,1.55-.11,1.53-.31,1.52-.51,1.51-.7,1.49-.89,1.48L157,94.73l-1.29,1.45-1.48,1.43L152.55,99l-1.87,1.4"/>
            <path class="cls-1" d="M149.57,85.68l0,.78,0,.78,0,.78v2.35l0,.78,0,.78,0,.78.06.78.07.78.08.77.1.78.11.77.12.78.13.77.14.77.16.76.17.76"/>
            <path class="cls-1" d="M156.08,114.21l.4.67.4.67.42.66.43.65.44.65.44.64.46.63.47.63.48.62.48.61.5.6.51.6.51.58.53.58.53.57.54.57.56.55.56.55.56.53"/>
            <path class="cls-1" d="M156.08,114.21l2.33-.25,2.19-.1,2.06,0,1.93.18,1.79.34,1.66.47,1.53.62,1.39.76,1.26.9,1.13,1,1,1.19.86,1.33.73,1.48.6,1.62.46,1.77.33,1.9.2,2,.07,2.2-.07,2.33"/>
            <path class="cls-1" d="M165.3,125.77l.58.53.59.52.59.5.6.5.61.49.62.48.62.47.63.46.64.45.65.44.65.43.66.42.66.41.68.4.68.39.68.38.69.36.7.36.7.34"/>
            <path class="cls-1" d="M165.3,125.77l2.16-.92,2.06-.74,2-.56,1.9-.39,1.81-.21,1.73,0,1.64.14,1.56.31,1.47.5,1.39.66,1.3.85,1.22,1,1.13,1.2,1,1.37,1,1.55.88,1.72.79,1.9.71,2.08.62,2.26"/>
            <path class="cls-1" d="M177.53,134.1l.7.34.72.32.71.31.72.3.73.29.73.28.74.26.74.26.74.24.75.23.75.22.75.2.76.2.76.18.76.17.76.16.77.15.77.13.77.13"/>
            <path class="cls-1" d="M177.53,134.1l1.78-1.51,1.76-1.31,1.72-1.13,1.7-.93,1.67-.73,1.64-.55,1.61-.35,1.58-.16,1.55,0,1.52.23,1.5.42,1.46.62,1.44.81,1.4,1,1.38,1.2,1.35,1.39,1.32,1.58,1.29,1.78,1.26,2"/>
            <path class="cls-1" d="M191.66,138.47l.78.11.77.09.78.09.78.07.78.06.78.05.78,0,.78,0h2.34l.78,0,.78,0,.78-.05.78-.06.78-.07.78-.09.77-.09.78-.11"/>
            <path class="cls-1" d="M247.44,100.43l.17-.76.16-.76.14-.77.13-.77.12-.78.11-.77.1-.78.08-.77.07-.78.06-.78,0-.78,0-.78,0-.78V88.8l0-.78,0-.78,0-.78,0-.78"/>
            <path class="cls-1" d="M247.44,100.43,245.57,99l-1.67-1.42-1.48-1.43-1.29-1.45L240,93.27l-.89-1.48-.7-1.49-.51-1.51-.31-1.52-.11-1.53.08-1.55.27-1.57.47-1.58.67-1.59.86-1.61,1-1.62,1.25-1.64,1.45-1.65,1.64-1.67"/>
            <path class="cls-1" d="M248.55,85.68l-2.2-.79-2-.86-1.84-.93-1.65-1L239.37,81l-1.29-1.15L237,78.65,236,77.36,235.3,76l-.57-1.44-.38-1.5-.2-1.58V69.83l.16-1.71.35-1.8.53-1.86.71-1.93.9-2,1.07-2.07"/>
            <path class="cls-1" d="M245.26,71.26l-.29-.73-.31-.72-.31-.71-.32-.71-.34-.71-.35-.7-.36-.69-.37-.69-.38-.68-.39-.68-.4-.67L241,62.9l-.42-.65-.43-.65-.45-.65-.45-.64-.46-.62-.48-.63-.48-.61"/>
            <path class="cls-1" d="M245.26,71.26l-2.34-.11-2.18-.23-2-.35-1.88-.47-1.72-.59-1.57-.72L232.12,68l-1.27-1-1.11-1.08-1-1.2L228,63.38l-.65-1.45-.5-1.57-.35-1.69-.2-1.81,0-1.94.11-2.05.26-2.18.42-2.3"/>
            <path class="cls-1" d="M237.86,58.45l-.49-.61-.5-.6-.51-.59-.52-.58-.53-.58-.54-.56-.55-.56-.55-.55-.57-.54-.57-.53-.58-.53-.59-.51-.6-.5-.6-.5-.62-.48-.62-.48-.63-.46-.63-.46-.64-.44"/>
            <path class="cls-1" d="M237.86,58.45,235.6,59l-2.16.43-2,.26-1.93.1-1.82,0-1.72-.23-1.6-.38-1.49-.54-1.39-.71L220.18,57,219,56,218,54.82,217,53.47,216.19,52l-.72-1.68-.61-1.83-.5-2L214,44.29,213.69,42"/>
            <path class="cls-1" d="M227,48.39l-.65-.44-.66-.42-.66-.42-.67-.4-.67-.4-.69-.38-.68-.37-.7-.36-.7-.35-.7-.34-.71-.33-.71-.32-.72-.3-.73-.3-.73-.28-.73-.27-.74-.26-.74-.25-.74-.23"/>
          </g>
          <g>
            <g id="line2d_44" data-name="line2d 44">
              <path class="cls-2" d="M198.56,39h-.78L197,39l-.78,0-.78,0-.78.06-.78.06-.78.08-.78.1-.77.1-.77.12-.77.12-.77.15-.77.15-.76.16-.76.18-.76.19-.76.2-.75.21-.75.23"/>
            </g>
            <g id="line2d_45" data-name="line2d 45">
              <path class="cls-2" d="M198.56,39l-.95,2.14-1,1.95-1.07,1.76-1.13,1.57-1.18,1.39L192,49l-1.3,1-1.36.82-1.41.65-1.47.45-1.53.27-1.59.08-1.64-.11-1.7-.29-1.76-.48-1.82-.67-1.87-.86-1.94-1-2-1.22"/>
            </g>
            <g id="line2d_46" data-name="line2d 46">
              <path class="cls-2" d="M198.56,39l.95,2.14,1,1.95,1.07,1.76,1.13,1.57,1.18,1.39,1.24,1.2,1.3,1,1.36.82,1.41.65,1.47.45,1.53.27,1.59.08,1.64-.11,1.7-.29,1.76-.48,1.82-.67,1.87-.86,1.94-1,2-1.22"/>
            </g>
            <g id="line2d_47" data-name="line2d 47">
              <path class="cls-2" d="M213.19,41.17l-.75-.23-.75-.21-.76-.2-.76-.19-.76-.18-.76-.16-.77-.15-.77-.15-.77-.12-.77-.12-.77-.1-.78-.1-.78-.08-.78-.06-.78-.06-.78,0-.78,0-.78,0h-.78"/>
            </g>
            <g id="line2d_49" data-name="line2d 49">
              <path class="cls-2" d="M183.93,41.17l-.74.23-.74.25-.74.26-.73.27-.73.28-.73.3-.72.3-.71.32-.71.33-.7.34-.7.35-.7.36-.68.37-.68.38-.68.4-.67.4-.66.42-.66.42-.65.44"/>
            </g>
            <g id="line2d_50" data-name="line2d 50">
              <path class="cls-2" d="M183.93,41.17l1.54,1.76L187,44.49l1.54,1.37L190.09,47l1.54,1,1.54.78,1.54.59,1.54.39,1.54.2h1.54l1.54-.2,1.54-.39,1.54-.59,1.54-.78L207,47l1.54-1.17,1.54-1.37,1.54-1.56,1.54-1.76"/>
            </g>
            <g id="line2d_52" data-name="line2d 52">
              <path class="cls-2" d="M170.6,47.59,170,48l-.63.46-.63.46-.62.48-.62.48-.6.5-.6.5-.59.51-.58.53-.57.53L164,53l-.55.55-.55.56-.54.56-.53.58-.52.58-.51.59-.5.6-.49.61"/>
            </g>
            <g id="line2d_53" data-name="line2d 53">
              <path class="cls-2" d="M170.6,47.59l.42,2.3.26,2.18.11,2,0,1.94-.2,1.81-.34,1.69-.51,1.57-.65,1.45-.81,1.33-1,1.2-1.11,1.08-1.27,1-1.42.84-1.57.72-1.72.59-1.88.47-2,.35-2.18.23-2.34.11"/>
            </g>
            <g id="line2d_54" data-name="line2d 54">
              <path class="cls-2" d="M159.76,57.65l-.48.61-.48.63-.46.62-.45.64-.44.65-.44.65-.42.65-.41.67-.4.67-.39.68-.38.68-.37.69-.36.69-.35.7-.33.71-.33.71L153,69l-.31.72-.29.73"/>
            </g>
            <g id="line2d_55" data-name="line2d 55">
              <path class="cls-2" d="M159.76,57.65l1.07,2.07.9,2,.71,1.93.53,1.86.35,1.8.16,1.71v1.65l-.2,1.58-.38,1.5-.57,1.44-.74,1.36-.93,1.29-1.11,1.22-1.29,1.15-1.47,1.07-1.65,1-1.84.93-2,.86-2.2.79"/>
            </g>
            <g id="line2d_56" data-name="line2d 56">
              <path class="cls-2" d="M152.36,70.46l-.28.73-.27.73-.25.74-.25.74-.23.75-.22.75-.21.75-.2.76-.19.76-.17.76-.16.76-.15.77-.14.77-.12.77-.12.77-.1.78-.09.78-.07.77-.07.78"/>
            </g>
            <g id="line2d_57" data-name="line2d 57">
              <path class="cls-2" d="M152.36,70.46,154,72.13l1.45,1.65,1.25,1.64L157.75,77l.86,1.61.67,1.59.47,1.58.27,1.57.08,1.55L160,86.47,159.68,88l-.51,1.51-.7,1.49-.89,1.48-1.09,1.46-1.29,1.45-1.48,1.43-1.67,1.42-1.87,1.4"/>
            </g>
            <g id="line2d_59" data-name="line2d 59">
              <path class="cls-2" d="M149.07,84.88l0,.78,0,.78,0,.78v2.35l0,.78,0,.78,0,.78.06.78.07.78.08.77.1.78.11.77.12.78.13.77.14.77.16.76.17.76"/>
            </g>
            <g id="line2d_62" data-name="line2d 62">
              <path class="cls-2" d="M155.58,113.41l.4.67.4.67.42.66.43.65.44.65.44.64.46.63.47.63.48.62.48.61.5.6.51.6.51.58.53.58.53.57.54.57.56.55.56.55.56.53"/>
            </g>
            <g id="line2d_63" data-name="line2d 63">
              <path class="cls-2" d="M155.58,113.41l2.33-.25,2.19-.1,2.06,0,1.93.18,1.79.34,1.66.47,1.53.62,1.39.76,1.26.9,1.13,1.05,1,1.19.86,1.33.73,1.48.6,1.62.46,1.77.33,1.9.2,2.05.07,2.2L177,133.3"/>
            </g>
            <g id="line2d_64" data-name="line2d 64">
              <path class="cls-2" d="M164.8,125l.58.53.59.52.59.5.6.5.61.49.62.48.62.47.63.46.64.45.65.44.65.43.66.42.66.41.68.4.68.39.68.38.69.36.7.36.7.34"/>
            </g>
            <g id="line2d_65" data-name="line2d 65">
              <path class="cls-2" d="M164.8,125l2.16-.92,2.06-.74,2-.56,1.9-.39,1.81-.21,1.73,0,1.64.14,1.56.31,1.47.5,1.39.66,1.3.85,1.22,1,1.13,1.2,1,1.37,1,1.55.88,1.72.79,1.9.71,2.08.62,2.26"/>
            </g>
            <g id="line2d_66" data-name="line2d 66">
              <path class="cls-2" d="M177,133.3l.7.34.72.32.71.31.72.3.73.29.73.28.74.26.74.26.74.24.75.23.75.22.75.2.76.2.76.18.76.17.76.16.77.15.77.13.77.13"/>
            </g>
            <g id="line2d_67" data-name="line2d 67">
              <path class="cls-2" d="M177,133.3l1.78-1.51,1.76-1.31,1.72-1.13,1.7-.93,1.67-.73,1.64-.55,1.61-.35,1.58-.16,1.55,0,1.52.23,1.5.42,1.46.62,1.44.81,1.4,1,1.38,1.2,1.35,1.39,1.32,1.58,1.29,1.78,1.26,2"/>
            </g>
            <g id="line2d_68" data-name="line2d 68">
              <path class="cls-2" d="M191.16,137.67l.78.11.77.09.78.09.78.07.78.06.78,0,.78,0,.78,0h2.34l.78,0,.78,0,.78,0,.78-.06.78-.07.78-.09.77-.09.78-.11"/>
            </g>
            <g id="line2d_77" data-name="line2d 77">
              <path class="cls-2" d="M246.94,99.63l.17-.76.16-.76.14-.77.13-.77.12-.78.11-.77.1-.78.08-.77.07-.78.06-.78,0-.78,0-.78,0-.78V88l0-.78,0-.78,0-.78,0-.78"/>
            </g>
            <g id="line2d_78" data-name="line2d 78">
              <path class="cls-2" d="M246.94,99.63l-1.87-1.4-1.67-1.42-1.48-1.43-1.29-1.45-1.09-1.46L238.65,91,238,89.5,237.44,88l-.31-1.52L237,84.94l.08-1.55.27-1.57.47-1.58.67-1.59.86-1.61,1-1.62,1.25-1.64,1.45-1.65,1.64-1.67"/>
            </g>
            <g id="line2d_80" data-name="line2d 80">
              <path class="cls-2" d="M248.05,84.88l-2.2-.79-2-.86L242,82.3l-1.65-1-1.47-1.07-1.29-1.15-1.11-1.22-.93-1.29-.74-1.36-.57-1.44-.38-1.5-.2-1.58V69l.16-1.71.35-1.8.53-1.86.71-1.93.9-2,1.07-2.07"/>
            </g>
            <g id="line2d_81" data-name="line2d 81">
              <path class="cls-2" d="M244.76,70.46l-.29-.73-.31-.72-.31-.71-.32-.71-.34-.71-.35-.7-.36-.69-.37-.69-.38-.68-.39-.68-.4-.67-.41-.67-.42-.65-.43-.65-.45-.65-.45-.64-.46-.62-.48-.63-.48-.61"/>
            </g>
            <g id="line2d_82" data-name="line2d 82">
              <path class="cls-2" d="M244.76,70.46l-2.34-.11-2.18-.23-2-.35-1.88-.47-1.72-.59L233,68l-1.42-.84-1.27-1-1.11-1.08-1-1.2-.81-1.33-.65-1.45-.5-1.57L226,57.87l-.2-1.81,0-1.94.11-2,.26-2.18.42-2.3"/>
            </g>
            <g id="line2d_83" data-name="line2d 83">
              <path class="cls-2" d="M237.36,57.65l-.49-.61-.5-.6-.51-.59-.52-.58-.53-.58-.54-.56-.55-.56-.55-.55-.57-.54L232,52l-.58-.53-.59-.51-.6-.5-.6-.5-.62-.48-.62-.48-.63-.46-.63-.46-.64-.44"/>
            </g>
            <g id="line2d_84" data-name="line2d 84">
              <path class="cls-2" d="M237.36,57.65l-2.26.58-2.16.43-2,.26L229,59,227.15,59l-1.72-.23-1.6-.38-1.49-.54L221,57.11l-1.27-.87-1.16-1L217.47,54l-.94-1.35-.84-1.51L215,49.48l-.61-1.83-.5-2-.39-2.16-.28-2.32"/>
            </g>
            <g id="line2d_85" data-name="line2d 85">
              <path class="cls-2" d="M226.52,47.59l-.65-.44-.66-.42-.66-.42-.67-.4-.67-.4-.69-.38-.68-.37-.7-.36-.7-.35-.7-.34-.71-.33-.71-.32-.72-.3-.73-.3-.73-.28-.73-.27-.74-.26-.74-.25-.74-.23"/>
            </g>
          </g>
        </g>
        <g id="line2d_60" data-name="line2d 60">
          <path class="cls-1" d="M149.07,84.88,151.13,86,153,87.14l1.67,1.2,1.49,1.24,1.3,1.29,1.1,1.32.92,1.37L160.2,95l.53,1.46.35,1.5.15,1.54,0,1.59L161,102.7l-.42,1.68-.61,1.71-.8,1.77-1,1.8L157,111.51l-1.37,1.9"/>
        </g>
        <g id="line2d_61" data-name="line2d 61">
          <path class="cls-1" d="M150.18,99.63l2.29.46,2.12.55,2,.65,1.79.75,1.61.84,1.45.94,1.28,1,1.11,1.14.94,1.24.77,1.33.6,1.43.43,1.53.26,1.63.09,1.72-.08,1.82-.24,1.92-.42,2-.58,2.12L164.8,125"/>
        </g>
        <g id="line2d_69" data-name="line2d 69">
          <path class="cls-1" d="M191.16,137.67l1.26-2,1.29-1.78,1.32-1.58,1.35-1.39,1.38-1.2,1.4-1,1.44-.81,1.46-.62,1.5-.42,1.52-.23,1.55,0,1.58.16,1.61.35,1.64.55,1.67.73,1.7.93,1.72,1.13,1.76,1.31,1.78,1.51"/>
        </g>
        <g id="line2d_70" data-name="line2d 70">
          <path class="cls-1" d="M206,137.67l.77-.13.77-.13.77-.15.76-.16.76-.17.76-.18.76-.2.75-.2.75-.22.75-.23.74-.24.74-.26.74-.26.73-.28.73-.29.72-.3.71-.31.72-.32.7-.34"/>
        </g>
        <g id="line2d_71" data-name="line2d 71">
          <path class="cls-1" d="M206,137.67l.62-2.26.71-2.08.79-1.9.88-1.72,1-1.55,1.05-1.37,1.14-1.2,1.21-1,1.31-.85,1.38-.66,1.47-.5,1.56-.31,1.64-.14,1.73,0,1.81.21,1.9.39,2,.56,2.07.74,2.15.92"/>
        </g>
        <g id="line2d_72" data-name="line2d 72">
          <path class="cls-3" d="M206,137.67l-.63-5L205,128v-4.33l.3-4,.62-3.67.92-3.33,1.23-3,1.54-2.67,1.85-2.34,2.15-2,2.47-1.67,2.77-1.33,3.09-1,3.39-.66,3.7-.34h4l4.32.33,4.63.66,4.93,1"/>
        </g>
        <g id="line2d_73" data-name="line2d 73">
          <path class="cls-1" d="M220.09,133.3,220,131l.06-2.2.2-2.05.33-1.9.46-1.77.6-1.62.73-1.48.86-1.33,1-1.19,1.13-1.05,1.26-.9,1.39-.76,1.53-.62,1.66-.47,1.8-.34,1.92-.18,2.06,0,2.19.1,2.33.25"/>
        </g>
        <g id="line2d_74" data-name="line2d 74">
          <path class="cls-1" d="M232.32,125l.56-.53.57-.55.55-.55.54-.57.53-.57.53-.58.51-.58.51-.6.5-.6.48-.61.48-.62.47-.63.46-.63.44-.64.44-.65.43-.65.42-.66.4-.67.4-.67"/>
        </g>
        <g id="line2d_75" data-name="line2d 75">
          <path class="cls-1" d="M232.32,125l-.76-2.21-.58-2.12-.42-2-.24-1.92-.08-1.82.09-1.72.26-1.63L231,110l.61-1.43.77-1.33.93-1.24,1.11-1.14,1.28-1,1.45-.94,1.61-.84,1.79-.75,2-.65,2.12-.55,2.29-.46"/>
        </g>
        <g id="line2d_79" data-name="line2d 79">
          <path class="cls-2" d="M248.05,84.88,248,84.1l-.08-.77-.09-.78-.1-.78-.11-.77-.13-.77-.14-.77-.15-.77-.16-.76-.17-.76-.19-.76-.2-.76-.21-.75-.22-.75-.23-.75-.25-.74-.25-.74-.27-.73-.28-.73"/>
        </g>
        <g id="line2d_48" data-name="line2d 48">
          <path class="cls-3" d="M198.56,39l-.12,5.16-.36,5L197.49,54l-.83,4.74-1.08,4.6-1.31,4.47-1.54,4.33-1.79,4.2-2,4-2.27,3.92-2.5,3.78-2.73,3.64-3,3.51-3.21,3.37-3.46,3.23L168.08,105l-3.93,3L160,110.72l-4.41,2.69"/>
        </g>
        <g id="line2d_51" data-name="line2d 51">
          <path class="cls-3" d="M183.93,41.17l1.64,4.89,1.82,4.69,2,4.49,2.2,4.28L194,63.61l2.57,3.88,2.75,3.68,3,3.48,3.12,3.28L208.68,81l3.5,2.87,3.69,2.68L219.75,89l4.07,2.27,4.25,2.07,4.44,1.87,4.62,1.67L242,98.37l5,1.26"/>
        </g>
        <g id="line2d_76" data-name="line2d 76">
          <g id="line2d_58" data-name="line2d 58">
            <path class="cls-4" d="M152.39,70.46l4.87,1.85L162.15,74l4.91,1.61L172,77.13l4.94,1.36,5,1.24,5,1.12,5,1,5,.88,5,.76,5,.63,5.08.52,5.09.4,5.11.27,5.12.16,5.15,0,5.16-.09,5.18-.21,5.21-.33"/>
          </g>
          <g id="line2d_76-2" data-name="line2d 76">
            <path class="cls-4" d="M241.54,113.41l-1.37-1.9L239,109.66l-1-1.8-.8-1.77-.61-1.71-.42-1.68-.23-1.63,0-1.59.16-1.54.34-1.5.53-1.46.73-1.42.91-1.37,1.1-1.32,1.3-1.29,1.49-1.24,1.67-1.2L246,86l2.06-1.11"/>
          </g>
          <g>
            <polyline class="cls-3" points="242.04 113.91 240.67 112.01 239.49 110.16 238.49 108.36 237.69 106.59 237.08 104.88 236.66 103.2 236.43 101.57 236.39 99.98 236.54 98.44 236.89 96.94 237.42 95.48 238.15 94.06 239.06 92.69 240.16 91.36 241.46 90.08 242.95 88.84 244.62 87.64 246.49 86.49 248.55 85.38"/>
            <polyline class="cls-5" points="241.54 113.41 240.17 111.51 238.99 109.66 237.99 107.86 237.19 106.09 236.58 104.38 236.16 102.7 235.93 101.07 235.89 99.48 236.04 97.94 236.39 96.44 236.92 94.98 237.65 93.56 238.56 92.19 239.66 90.86 240.96 89.58 242.45 88.34 244.12 87.14 245.99 85.99 248.05 84.88"/>
          </g>
        </g>
        <g id="line2d_58-2" data-name="line2d 58">
          <g>
            <polyline class="cls-3" points="153.16 71.26 158.03 73.11 162.93 74.83 167.83 76.44 172.76 77.93 177.71 79.29 182.67 80.53 187.65 81.66 192.65 82.66 197.67 83.54 202.7 84.3 207.76 84.93 212.83 85.45 217.92 85.85 223.03 86.12 228.16 86.28 233.3 86.31 238.47 86.22 243.65 86.01 248.85 85.68"/>
            <polyline class="cls-5" points="152.36 70.46 157.23 72.31 162.13 74.03 167.03 75.64 171.96 77.13 176.91 78.49 181.87 79.73 186.85 80.86 191.85 81.86 196.87 82.74 201.9 83.5 206.96 84.13 212.03 84.65 217.12 85.05 222.23 85.32 227.36 85.48 232.5 85.51 237.67 85.42 242.85 85.21 248.05 84.88"/>
          </g>
          <path class="cls-6" d="M245.36,86.75c-.45-.19-.42-1.83,0-2,.31-.11,1,.32,1,1S245.66,86.87,245.36,86.75Z"/>
        </g>
        <g id="line2d_86" data-name="line2d 86">
          <g>
            <path class="cls-7" d="M198.56,41.09a2.13,2.13,0,0,0,0-4.26,2.15,2.15,0,0,0-1.51.63,2.14,2.14,0,0,0,0,3A2.14,2.14,0,0,0,198.56,41.09Z"/>
            <path class="cls-7" d="M183.93,43.3a2.15,2.15,0,1,0-1.5-.63A2.13,2.13,0,0,0,183.93,43.3Z"/>
            <path class="cls-7" d="M170.6,49.72a2.15,2.15,0,1,0-1.5-.63A2.13,2.13,0,0,0,170.6,49.72Z"/>
            <path class="cls-7" d="M159.76,59.78a2.15,2.15,0,0,0,1.51-.63,2.14,2.14,0,0,0,0-3,2.13,2.13,0,0,0-3.64,1.51,2.13,2.13,0,0,0,2.13,2.13Z"/>
            <path class="cls-8" d="M152.36,72.59a2.13,2.13,0,1,0-2.13-2.13,2.15,2.15,0,0,0,.63,1.51A2.12,2.12,0,0,0,152.36,72.59Z"/>
            <path class="cls-7" d="M149.07,87a2.13,2.13,0,0,0,0-4.26,2.15,2.15,0,0,0-1.51.63,2.14,2.14,0,0,0,0,3A2.14,2.14,0,0,0,149.07,87Z"/>
            <path class="cls-7" d="M150.18,101.76a2.12,2.12,0,1,0-1.51-.62A2.12,2.12,0,0,0,150.18,101.76Z"/>
            <path class="cls-7" d="M155.58,115.54a2.13,2.13,0,1,0-1.51-.63A2.13,2.13,0,0,0,155.58,115.54Z"/>
            <path class="cls-7" d="M164.8,127.1a2.14,2.14,0,0,0,1.51-3.64,2.14,2.14,0,0,0-3.64,1.51,2.13,2.13,0,0,0,2.13,2.13Z"/>
            <path class="cls-7" d="M177,135.44a2.13,2.13,0,1,0-1.51-.63A2.13,2.13,0,0,0,177,135.44Z"/>
            <path class="cls-7" d="M191.16,139.8a2.15,2.15,0,1,0-1.5-.63A2.13,2.13,0,0,0,191.16,139.8Z"/>
            <path class="cls-7" d="M206,139.8a2.13,2.13,0,1,0-1.51-.63A2.13,2.13,0,0,0,206,139.8Z"/>
            <path class="cls-7" d="M220.09,135.44a2.15,2.15,0,1,0-1.5-.63A2.13,2.13,0,0,0,220.09,135.44Z"/>
            <path class="cls-7" d="M232.32,127.1a2.13,2.13,0,0,0,2.13-2.13,2.13,2.13,0,1,0-4.26,0,2.12,2.12,0,0,0,2.13,2.13Z"/>
            <path class="cls-8" d="M241.54,115.54a2.15,2.15,0,0,0,1.51-.63,2.14,2.14,0,0,0,0-3,2.12,2.12,0,0,0-3,0,2.14,2.14,0,0,0,1.51,3.64Z"/>
            <path class="cls-7" d="M246.94,101.76a2.13,2.13,0,1,0-1.5-.62A2.13,2.13,0,0,0,246.94,101.76Z"/>
            <path class="cls-8" d="M248.05,87a2.13,2.13,0,0,0,0-4.26,2.15,2.15,0,0,0-1.51.63,2.14,2.14,0,0,0,0,3A2.14,2.14,0,0,0,248.05,87Z"/>
            <path class="cls-7" d="M244.76,72.59a2.1,2.1,0,0,0,1.5-.62,2.12,2.12,0,0,0,0-3,2.1,2.1,0,0,0-1.5-.62,2.13,2.13,0,1,0,0,4.26Z"/>
            <path class="cls-7" d="M237.36,59.78a2.13,2.13,0,1,0-1.51-3.64,2.14,2.14,0,0,0,1.51,3.64Z"/>
            <path class="cls-7" d="M226.52,49.72a2.13,2.13,0,1,0-1.51-.63A2.13,2.13,0,0,0,226.52,49.72Z"/>
            <path class="cls-7" d="M213.19,43.3a2.13,2.13,0,1,0,0-4.26,2.13,2.13,0,0,0,0,4.26Z"/>
          </g>
        </g>
      </g>
      <g>
        <path d="M26.34,23.7a2.64,2.64,0,0,1,.8-2.13,2.56,2.56,0,0,1,3.38.12,2.7,2.7,0,0,1,.68,1.94,3.4,3.4,0,0,1-.3,1.57,2.24,2.24,0,0,1-.88.9,2.55,2.55,0,0,1-1.25.31,2.31,2.31,0,0,1-1.76-.7A2.76,2.76,0,0,1,26.34,23.7Zm.9,0a2.24,2.24,0,0,0,.43,1.49,1.45,1.45,0,0,0,2.19,0,2.26,2.26,0,0,0,.43-1.52,2.08,2.08,0,0,0-.44-1.45,1.38,1.38,0,0,0-1.08-.5,1.4,1.4,0,0,0-1.1.49A2.26,2.26,0,0,0,27.24,23.7Z"/>
        <path d="M32.22,26.3V21.11H33v.79a2.16,2.16,0,0,1,.56-.73.94.94,0,0,1,.56-.18,1.68,1.68,0,0,1,.9.29l-.3.81a1.21,1.21,0,0,0-.64-.19.85.85,0,0,0-.52.17,1,1,0,0,0-.33.49,3.31,3.31,0,0,0-.15,1V26.3Z"/>
        <path d="M38.92,26.3v-.66a1.6,1.6,0,0,1-1.45.77,2,2,0,0,1-1.14-.34,2.28,2.28,0,0,1-.81-.95,3.32,3.32,0,0,1-.28-1.41,3.54,3.54,0,0,1,.26-1.41A2,2,0,0,1,37.43,21a1.8,1.8,0,0,1,.84.2,1.65,1.65,0,0,1,.59.52V19.14h.88V26.3Zm-2.78-2.59a2.26,2.26,0,0,0,.42,1.49,1.25,1.25,0,0,0,2,0,2.17,2.17,0,0,0,.4-1.44,2.39,2.39,0,0,0-.41-1.56,1.26,1.26,0,0,0-1-.5,1.23,1.23,0,0,0-1,.48A2.38,2.38,0,0,0,36.14,23.71Z"/>
        <path d="M44.67,24.63l.91.11a2.22,2.22,0,0,1-.8,1.23,2.7,2.7,0,0,1-3.29-.26,2.75,2.75,0,0,1-.67-2,2.85,2.85,0,0,1,.68-2A2.26,2.26,0,0,1,43.25,21a2.23,2.23,0,0,1,1.7.71,2.86,2.86,0,0,1,.65,2v.24H41.73a2.05,2.05,0,0,0,.49,1.31,1.44,1.44,0,0,0,1.08.45,1.31,1.31,0,0,0,.82-.25A1.73,1.73,0,0,0,44.67,24.63ZM41.78,23.2h2.9a1.72,1.72,0,0,0-.34-1,1.33,1.33,0,0,0-1.08-.5,1.38,1.38,0,0,0-1,.4A1.58,1.58,0,0,0,41.78,23.2Z"/>
        <path d="M46.67,26.3V21.11h.79v.79a2.16,2.16,0,0,1,.56-.73,1,1,0,0,1,.56-.18,1.74,1.74,0,0,1,.91.29l-.31.81a1.21,1.21,0,0,0-.64-.19.87.87,0,0,0-.52.17,1,1,0,0,0-.33.49,3.64,3.64,0,0,0-.14,1V26.3Z"/>
        <path d="M53.56,24.63l.91.11a2.22,2.22,0,0,1-.8,1.23,2.35,2.35,0,0,1-1.48.44,2.38,2.38,0,0,1-1.81-.7,2.75,2.75,0,0,1-.66-2,2.84,2.84,0,0,1,.67-2A2.26,2.26,0,0,1,52.14,21a2.23,2.23,0,0,1,1.7.71,2.81,2.81,0,0,1,.66,2c0,.06,0,.13,0,.24H50.62a2.05,2.05,0,0,0,.49,1.31,1.44,1.44,0,0,0,1.08.45,1.36,1.36,0,0,0,.83-.25A1.72,1.72,0,0,0,53.56,24.63ZM50.67,23.2h2.9a1.8,1.8,0,0,0-.33-1,1.35,1.35,0,0,0-1.09-.5,1.38,1.38,0,0,0-1,.4A1.58,1.58,0,0,0,50.67,23.2Z"/>
        <path d="M58.93,26.3v-.66a1.59,1.59,0,0,1-1.45.77,2,2,0,0,1-1.14-.34,2.33,2.33,0,0,1-.8-.95,3.32,3.32,0,0,1-.29-1.41,3.73,3.73,0,0,1,.26-1.41,2,2,0,0,1,.78-1A2,2,0,0,1,57.45,21a1.73,1.73,0,0,1,.83.2,1.77,1.77,0,0,1,.6.52V19.14h.87V26.3Zm-2.77-2.59a2.26,2.26,0,0,0,.42,1.49,1.25,1.25,0,0,0,2,0,2.23,2.23,0,0,0,.4-1.44,2.45,2.45,0,0,0-.41-1.56,1.26,1.26,0,0,0-1-.5,1.22,1.22,0,0,0-1,.48A2.38,2.38,0,0,0,56.16,23.71Z"/>
        <path d="M63.89,26.3V19.14h.88V26.3Z"/>
        <path d="M69.52,25.66a3.38,3.38,0,0,1-.94.58,2.64,2.64,0,0,1-1,.17A2,2,0,0,1,66.29,26a1.41,1.41,0,0,1-.46-1.07,1.38,1.38,0,0,1,.18-.7,1.28,1.28,0,0,1,.45-.5,2,2,0,0,1,.63-.29,5.57,5.57,0,0,1,.79-.13A8.09,8.09,0,0,0,69.44,23c0-.12,0-.19,0-.23A1,1,0,0,0,69.2,22a1.48,1.48,0,0,0-1-.3,1.52,1.52,0,0,0-.92.22,1.32,1.32,0,0,0-.44.77L66,22.59a2,2,0,0,1,.38-.89,1.65,1.65,0,0,1,.78-.52A3.26,3.26,0,0,1,68.32,21a2.93,2.93,0,0,1,1.08.16,1.34,1.34,0,0,1,.61.39,1.52,1.52,0,0,1,.28.6,5,5,0,0,1,0,.81v1.17a11.54,11.54,0,0,0,.06,1.55,1.82,1.82,0,0,0,.22.63h-.92A1.83,1.83,0,0,1,69.52,25.66Zm-.08-2A6.34,6.34,0,0,1,68,24a4.21,4.21,0,0,0-.77.18.83.83,0,0,0-.35.29.73.73,0,0,0-.12.41.75.75,0,0,0,.27.59,1.1,1.1,0,0,0,.78.23,1.79,1.79,0,0,0,.9-.22,1.37,1.37,0,0,0,.58-.61,2,2,0,0,0,.14-.87Z"/>
        <path d="M73.61,25.51l.13.78a3.37,3.37,0,0,1-.66.07,1.56,1.56,0,0,1-.75-.15.84.84,0,0,1-.37-.4,3.13,3.13,0,0,1-.11-1v-3h-.64v-.68h.64V19.83l.88-.53v1.81h.88v.68h-.88v3a1.6,1.6,0,0,0,0,.48.44.44,0,0,0,.16.17.61.61,0,0,0,.3.06Z"/>
        <path d="M76.39,25.51l.13.78a3.39,3.39,0,0,1-.67.07,1.51,1.51,0,0,1-.74-.15.84.84,0,0,1-.37-.4,3.13,3.13,0,0,1-.11-1v-3H74v-.68h.64V19.83l.88-.53v1.81h.88v.68h-.88v3a1.6,1.6,0,0,0,0,.48.35.35,0,0,0,.15.17.61.61,0,0,0,.3.06Z"/>
        <path d="M77.25,20.15v-1h.88v1Zm0,6.15V21.11h.88V26.3Z"/>
        <path d="M82.86,24.4l.86.11a2.25,2.25,0,0,1-.73,1.4,2.11,2.11,0,0,1-1.43.5,2.23,2.23,0,0,1-1.71-.69,2.85,2.85,0,0,1-.65-2,3.71,3.71,0,0,1,.28-1.47,2,2,0,0,1,.85-.94A2.52,2.52,0,0,1,81.57,21a2.19,2.19,0,0,1,1.38.43,1.94,1.94,0,0,1,.69,1.21l-.86.14a1.38,1.38,0,0,0-.43-.79,1.11,1.11,0,0,0-.75-.26,1.36,1.36,0,0,0-1.08.47,2.25,2.25,0,0,0-.41,1.51,2.34,2.34,0,0,0,.4,1.52,1.3,1.3,0,0,0,1,.47,1.24,1.24,0,0,0,.87-.32A1.6,1.6,0,0,0,82.86,24.4Z"/>
        <path d="M88,24.63l.91.11a2.17,2.17,0,0,1-.8,1.23,2.68,2.68,0,0,1-3.28-.26,2.71,2.71,0,0,1-.67-2,2.84,2.84,0,0,1,.67-2A2.26,2.26,0,0,1,86.6,21a2.23,2.23,0,0,1,1.7.71,2.81,2.81,0,0,1,.66,2,2.37,2.37,0,0,1,0,.24H85.09a2,2,0,0,0,.48,1.31,1.44,1.44,0,0,0,1.08.45,1.34,1.34,0,0,0,.83-.25A1.65,1.65,0,0,0,88,24.63ZM85.14,23.2H88a1.8,1.8,0,0,0-.33-1,1.33,1.33,0,0,0-1.09-.5,1.41,1.41,0,0,0-1,.4A1.62,1.62,0,0,0,85.14,23.2Z"/>
      </g>
      <g>
        <path d="M173.35,24.52l.88-.05a1.6,1.6,0,0,0,.12.65,1,1,0,0,0,.43.44,1.58,1.58,0,0,0,.74.17,1.38,1.38,0,0,0,.88-.24.69.69,0,0,0,.29-.55.67.67,0,0,0-.17-.43,2.85,2.85,0,0,0-.89-.51,9.29,9.29,0,0,1-.89-.42,1.51,1.51,0,0,1-.5-.47,1.17,1.17,0,0,1-.16-.62,1.38,1.38,0,0,1,.49-1.06,2,2,0,0,1,1.36-.44,2.19,2.19,0,0,1,1.49.45,1.58,1.58,0,0,1,.53,1.19l-.86.06a1,1,0,0,0-.34-.74,1.29,1.29,0,0,0-.88-.27,1.07,1.07,0,0,0-.71.21.6.6,0,0,0-.26.45.57.57,0,0,0,.22.43,4.27,4.27,0,0,0,.76.39,5,5,0,0,1,1.28.69,1.32,1.32,0,0,1,.42,1,1.39,1.39,0,0,1-.24.76,1.66,1.66,0,0,1-.72.59,2.7,2.7,0,0,1-1.14.22A2.63,2.63,0,0,1,174,26,1.59,1.59,0,0,1,173.35,24.52Z"/>
        <path d="M178.26,26.3l1.09-5.19h.88l-.18.85a3.7,3.7,0,0,1,.88-.76,1.74,1.74,0,0,1,.84-.21,1.25,1.25,0,0,1,.81.26A1.21,1.21,0,0,1,183,22a3.09,3.09,0,0,1,.83-.73,1.89,1.89,0,0,1,.92-.24,1.4,1.4,0,0,1,1,.31,1.15,1.15,0,0,1,.32.86,5.13,5.13,0,0,1-.11.8l-.7,3.34h-.88l.71-3.43a3.31,3.31,0,0,0,.09-.6.49.49,0,0,0-.16-.4.64.64,0,0,0-.45-.15,1.58,1.58,0,0,0-.81.24,1.84,1.84,0,0,0-.64.63,4.1,4.1,0,0,0-.39,1.19l-.53,2.52h-.88l.73-3.51a2.85,2.85,0,0,0,.08-.5.55.55,0,0,0-.58-.57,1.53,1.53,0,0,0-.78.24,1.9,1.9,0,0,0-.68.67,4,4,0,0,0-.42,1.21l-.51,2.46Z"/>
        <path d="M190.09,25.65a3.5,3.5,0,0,1-.88.58,2.31,2.31,0,0,1-.91.18,1.58,1.58,0,0,1-1.15-.42,1.4,1.4,0,0,1-.44-1.08,1.49,1.49,0,0,1,.19-.77,1.71,1.71,0,0,1,.53-.54,2.43,2.43,0,0,1,.8-.29,8.35,8.35,0,0,1,1.13-.09,3.74,3.74,0,0,0,1.19-.18,2.26,2.26,0,0,0,.11-.6.59.59,0,0,0-.23-.48,1.42,1.42,0,0,0-.9-.24,1.6,1.6,0,0,0-.91.24,1.41,1.41,0,0,0-.51.7l-.9-.08a2.4,2.4,0,0,1,.87-1.18,2.6,2.6,0,0,1,1.5-.41,2.36,2.36,0,0,1,1.52.46,1.08,1.08,0,0,1,.43.89,4.48,4.48,0,0,1-.12,1l-.29,1.29a4.92,4.92,0,0,0-.14,1,3.63,3.63,0,0,0,.11.71h-.89A3.23,3.23,0,0,1,190.09,25.65Zm.33-2a2.11,2.11,0,0,1-.4.11c-.14,0-.37,0-.71.08a5.86,5.86,0,0,0-1.09.18.88.88,0,0,0-.47.33.85.85,0,0,0-.17.51.8.8,0,0,0,.26.61,1,1,0,0,0,.73.24,1.71,1.71,0,0,0,1.49-.88A4,4,0,0,0,190.42,23.67Z"/>
        <path d="M192.09,26.3l1.5-7.16h.88L193,26.3Z"/>
        <path d="M194.31,26.3l1.5-7.16h.88L195.2,26.3Z"/>
        <path d="M196.73,24.15l.19-.89h2.7l-.18.89Z"/>
        <path d="M200.92,26.3l-.54-5.19h.85l.23,2.33.09,1.31c0,.1,0,.29,0,.59.1-.33.18-.59.25-.77s.18-.43.33-.76l1.24-2.7h1l.17,2.59c0,.4,0,.92.05,1.58.16-.44.43-1,.79-1.82l1.12-2.35h.88l-2.53,5.19h-.92l-.2-3.05c0-.19,0-.55,0-1.1-.13.35-.29.72-.47,1.13l-1.37,3Z"/>
        <path d="M207.31,24.33a3.68,3.68,0,0,1,.89-2.52,2.52,2.52,0,0,1,1.94-.82,2,2,0,0,1,1.51.59,2.17,2.17,0,0,1,.57,1.58,3.84,3.84,0,0,1-.36,1.66,2.59,2.59,0,0,1-1,1.18,2.56,2.56,0,0,1-1.4.41,2.26,2.26,0,0,1-1.1-.26,1.79,1.79,0,0,1-.76-.73A2.25,2.25,0,0,1,207.31,24.33Zm.88-.09a1.54,1.54,0,0,0,.36,1.11,1.16,1.16,0,0,0,.89.38,1.38,1.38,0,0,0,.56-.12,1.56,1.56,0,0,0,.52-.34,2.74,2.74,0,0,0,.41-.54,3.42,3.42,0,0,0,.27-.65,3.1,3.1,0,0,0,.15-.92,1.61,1.61,0,0,0-.35-1.1,1.2,1.2,0,0,0-.9-.38,1.49,1.49,0,0,0-.75.19,2.12,2.12,0,0,0-.62.58,2.8,2.8,0,0,0-.41.89A4.06,4.06,0,0,0,208.19,24.24Z"/>
        <path d="M212.72,26.3l1.08-5.19h.78l-.22,1.06a3.57,3.57,0,0,1,.79-.89,1.28,1.28,0,0,1,.78-.29,1.69,1.69,0,0,1,.65.19l-.36.82a.86.86,0,0,0-.51-.16,1.39,1.39,0,0,0-1,.51,4,4,0,0,0-.76,1.87l-.44,2.08Z"/>
        <path d="M216,26.3l1.49-7.16h.89l-1.5,7.16Z"/>
        <path d="M221.76,25.54a2.12,2.12,0,0,1-1.58.87,1.6,1.6,0,0,1-1.23-.54,2.32,2.32,0,0,1-.49-1.58,3.82,3.82,0,0,1,.39-1.73,3,3,0,0,1,1-1.18A2.1,2.1,0,0,1,221,21a1.56,1.56,0,0,1,1.46.94l.59-2.79h.88l-1.5,7.16h-.81Zm-2.42-1.42a2.81,2.81,0,0,0,.11.86,1.07,1.07,0,0,0,.37.52.94.94,0,0,0,.62.2,1.35,1.35,0,0,0,1.08-.62,3.19,3.19,0,0,0,.66-2,1.37,1.37,0,0,0-.32-1,1.08,1.08,0,0,0-.81-.35,1.24,1.24,0,0,0-.58.14,1.77,1.77,0,0,0-.52.48,3.29,3.29,0,0,0-.43.86A2.91,2.91,0,0,0,219.34,24.12Z"/>
      </g>
      <g>
        <path d="M304.65,26.69V26a1.61,1.61,0,0,1-1.45.78,2,2,0,0,1-1.14-.35,2.21,2.21,0,0,1-.8-.95A3.32,3.32,0,0,1,301,24.1a3.73,3.73,0,0,1,.26-1.41,2,2,0,0,1,.78-1,2.09,2.09,0,0,1,1.15-.33,1.67,1.67,0,0,1,1.43.71V19.53h.88v7.16Zm-2.78-2.59a2.26,2.26,0,0,0,.42,1.49,1.26,1.26,0,0,0,1,.49,1.2,1.2,0,0,0,1-.47,2.15,2.15,0,0,0,.41-1.44,2.45,2.45,0,0,0-.41-1.56,1.28,1.28,0,0,0-1-.5,1.22,1.22,0,0,0-1,.48A2.37,2.37,0,0,0,301.87,24.1Z"/>
        <path d="M306.85,20.54v-1h.88v1Zm0,6.15V21.5h.88v5.19Z"/>
        <path d="M308.72,25.14l.87-.14a1.17,1.17,0,0,0,.41.8,1.74,1.74,0,0,0,1.83,0,.73.73,0,0,0,.29-.58.52.52,0,0,0-.26-.47,3.69,3.69,0,0,0-.89-.3,7.44,7.44,0,0,1-1.34-.42,1.26,1.26,0,0,1-.76-1.19,1.33,1.33,0,0,1,.59-1.13,1.72,1.72,0,0,1,.56-.26,2.64,2.64,0,0,1,.76-.1,3,3,0,0,1,1.07.17,1.54,1.54,0,0,1,.68.48,1.72,1.72,0,0,1,.3.8L312,23a.94.94,0,0,0-.34-.63,1.22,1.22,0,0,0-.79-.22,1.38,1.38,0,0,0-.86.2.56.56,0,0,0-.26.47.47.47,0,0,0,.1.3.8.8,0,0,0,.34.24c.09,0,.35.11.78.22a13.33,13.33,0,0,1,1.3.41,1.4,1.4,0,0,1,.58.46,1.3,1.3,0,0,1,.21.75,1.48,1.48,0,0,1-.26.83,1.65,1.65,0,0,1-.74.6,2.72,2.72,0,0,1-1.09.22,2.48,2.48,0,0,1-1.54-.42A2,2,0,0,1,308.72,25.14Z"/>
        <path d="M313.74,24.1a2.65,2.65,0,0,1,.81-2.14,2.4,2.4,0,0,1,1.63-.57,2.3,2.3,0,0,1,1.74.7A2.61,2.61,0,0,1,318.6,24a3.47,3.47,0,0,1-.3,1.58,2.13,2.13,0,0,1-.87.89,2.55,2.55,0,0,1-1.25.32,2.33,2.33,0,0,1-1.76-.7A2.79,2.79,0,0,1,313.74,24.1Zm.91,0a2.21,2.21,0,0,0,.43,1.49,1.4,1.4,0,0,0,1.1.49,1.37,1.37,0,0,0,1.09-.5,2.29,2.29,0,0,0,.43-1.51,2.14,2.14,0,0,0-.44-1.46,1.38,1.38,0,0,0-1.08-.5,1.41,1.41,0,0,0-1.1.5A2.17,2.17,0,0,0,314.65,24.1Z"/>
        <path d="M319.62,26.69V21.5h.79v.79a2.29,2.29,0,0,1,.56-.73,1,1,0,0,1,.57-.17,1.71,1.71,0,0,1,.9.28l-.3.81a1.35,1.35,0,0,0-.65-.19.79.79,0,0,0-.51.18.84.84,0,0,0-.33.48,3.31,3.31,0,0,0-.15,1v2.72Z"/>
        <path d="M326.33,26.69V26a1.61,1.61,0,0,1-1.45.78,2,2,0,0,1-1.14-.35,2.17,2.17,0,0,1-.81-.95,3.32,3.32,0,0,1-.28-1.41,3.73,3.73,0,0,1,.25-1.41,2.16,2.16,0,0,1,.78-1,2.12,2.12,0,0,1,1.16-.33,1.72,1.72,0,0,1,.83.19,1.69,1.69,0,0,1,.6.52V19.53h.87v7.16Zm-2.78-2.59a2.26,2.26,0,0,0,.42,1.49,1.26,1.26,0,0,0,1,.49,1.23,1.23,0,0,0,1-.47,2.15,2.15,0,0,0,.4-1.44,2.39,2.39,0,0,0-.41-1.56,1.26,1.26,0,0,0-1-.5,1.22,1.22,0,0,0-1,.48A2.38,2.38,0,0,0,323.55,24.1Z"/>
        <path d="M332.07,25l.91.11a2.27,2.27,0,0,1-.79,1.24,2.44,2.44,0,0,1-1.49.44,2.35,2.35,0,0,1-1.8-.71,2.69,2.69,0,0,1-.67-2,2.86,2.86,0,0,1,.68-2,2.26,2.26,0,0,1,1.74-.72,2.21,2.21,0,0,1,1.7.7,2.84,2.84,0,0,1,.66,2v.23h-3.87a2,2,0,0,0,.48,1.31,1.45,1.45,0,0,0,1.09.45,1.33,1.33,0,0,0,.82-.25A1.65,1.65,0,0,0,332.07,25Zm-2.88-1.42h2.89a1.67,1.67,0,0,0-.33-1,1.34,1.34,0,0,0-1.09-.51,1.37,1.37,0,0,0-1,.4A1.59,1.59,0,0,0,329.19,23.6Z"/>
        <path d="M334.08,26.69V21.5h.79v.79a2.16,2.16,0,0,1,.56-.73,1,1,0,0,1,.56-.17,1.66,1.66,0,0,1,.9.28l-.3.81a1.31,1.31,0,0,0-.64-.19.8.8,0,0,0-.52.18.94.94,0,0,0-.33.48,3.31,3.31,0,0,0-.14,1v2.72Z"/>
        <path d="M341,25l.9.11a2.22,2.22,0,0,1-.79,1.24,2.42,2.42,0,0,1-1.49.44,2.36,2.36,0,0,1-1.8-.71,2.74,2.74,0,0,1-.67-2,2.86,2.86,0,0,1,.68-2,2.28,2.28,0,0,1,1.75-.72,2.19,2.19,0,0,1,1.69.7,2.84,2.84,0,0,1,.66,2v.23H338a2,2,0,0,0,.49,1.31,1.43,1.43,0,0,0,1.08.45,1.31,1.31,0,0,0,.82-.25A1.73,1.73,0,0,0,341,25Zm-2.89-1.42H341a1.67,1.67,0,0,0-.34-1,1.34,1.34,0,0,0-1.08-.51,1.38,1.38,0,0,0-1,.4A1.59,1.59,0,0,0,338.08,23.6Z"/>
        <path d="M346.34,26.69V26a1.61,1.61,0,0,1-1.45.78,2,2,0,0,1-1.14-.35,2.15,2.15,0,0,1-.8-.95,3.32,3.32,0,0,1-.29-1.41,3.73,3.73,0,0,1,.26-1.41,2,2,0,0,1,.78-1,2.09,2.09,0,0,1,1.15-.33,1.67,1.67,0,0,1,1.43.71V19.53h.88v7.16Zm-2.78-2.59a2.26,2.26,0,0,0,.42,1.49,1.26,1.26,0,0,0,1,.49,1.2,1.2,0,0,0,1-.47,2.15,2.15,0,0,0,.41-1.44,2.45,2.45,0,0,0-.41-1.56,1.28,1.28,0,0,0-1-.5,1.22,1.22,0,0,0-1,.48A2.31,2.31,0,0,0,343.56,24.1Z"/>
        <path d="M351.16,27.12l.85.12a.84.84,0,0,0,.3.58,1.47,1.47,0,0,0,.89.24,1.63,1.63,0,0,0,.95-.24,1.15,1.15,0,0,0,.44-.68,5.41,5.41,0,0,0,.07-1.13,1.84,1.84,0,0,1-1.44.68,2,2,0,0,1-1.65-.77,3,3,0,0,1-.59-1.85,3.38,3.38,0,0,1,.27-1.37,2.16,2.16,0,0,1,.78-1,2.09,2.09,0,0,1,1.2-.34,1.84,1.84,0,0,1,1.51.74V21.5h.81V26a4.16,4.16,0,0,1-.25,1.72,1.77,1.77,0,0,1-.78.8,2.73,2.73,0,0,1-1.31.29,2.47,2.47,0,0,1-1.5-.42A1.37,1.37,0,0,1,351.16,27.12Zm.72-3.12a2.25,2.25,0,0,0,.41,1.49,1.3,1.3,0,0,0,1,.47,1.26,1.26,0,0,0,1-.47,2.18,2.18,0,0,0,.41-1.46,2.12,2.12,0,0,0-.42-1.43,1.29,1.29,0,0,0-2,0A2.14,2.14,0,0,0,351.88,24Z"/>
        <path d="M356.87,26.69V21.5h.79v.79a2.16,2.16,0,0,1,.56-.73,1,1,0,0,1,.56-.17,1.72,1.72,0,0,1,.91.28l-.31.81a1.31,1.31,0,0,0-.64-.19.82.82,0,0,0-.52.18.87.87,0,0,0-.32.48,3.31,3.31,0,0,0-.15,1v2.72Z"/>
        <path d="M363.59,26.05a3,3,0,0,1-.94.58,2.58,2.58,0,0,1-1,.18,1.87,1.87,0,0,1-1.31-.42,1.38,1.38,0,0,1-.46-1.07,1.51,1.51,0,0,1,.17-.7,1.48,1.48,0,0,1,.46-.5,2.26,2.26,0,0,1,.63-.29,6.85,6.85,0,0,1,.78-.13,8.39,8.39,0,0,0,1.57-.3v-.23a1,1,0,0,0-.24-.76,1.49,1.49,0,0,0-1-.3,1.51,1.51,0,0,0-.91.22,1.36,1.36,0,0,0-.44.77l-.86-.12a2.15,2.15,0,0,1,.39-.89,1.65,1.65,0,0,1,.78-.52,3.47,3.47,0,0,1,1.17-.18,3.26,3.26,0,0,1,1.08.15,1.53,1.53,0,0,1,.61.39,1.38,1.38,0,0,1,.27.6,4.68,4.68,0,0,1,.05.81v1.18a15,15,0,0,0,0,1.55,2.12,2.12,0,0,0,.23.62h-.92A2,2,0,0,1,363.59,26.05Zm-.07-2a6.45,6.45,0,0,1-1.44.33,3.51,3.51,0,0,0-.76.17.77.77,0,0,0-.35.29.74.74,0,0,0-.12.42.75.75,0,0,0,.26.58,1.14,1.14,0,0,0,.78.24,1.84,1.84,0,0,0,.91-.23,1.4,1.4,0,0,0,.58-.6,2.24,2.24,0,0,0,.14-.88Z"/>
        <path d="M365.77,28.68V21.5h.8v.68a1.9,1.9,0,0,1,.64-.6,1.8,1.8,0,0,1,.87-.19,2,2,0,0,1,1.17.34,2.08,2.08,0,0,1,.76,1,3.41,3.41,0,0,1,.26,1.37,3.48,3.48,0,0,1-.28,1.43,2.17,2.17,0,0,1-2,1.32,1.73,1.73,0,0,1-1.36-.66v2.53Zm.8-4.56a2.24,2.24,0,0,0,.4,1.48,1.24,1.24,0,0,0,1,.48,1.28,1.28,0,0,0,1-.49,2.42,2.42,0,0,0,.41-1.54,2.29,2.29,0,0,0-.4-1.48,1.25,1.25,0,0,0-1-.5,1.27,1.27,0,0,0-1,.53A2.33,2.33,0,0,0,366.57,24.12Z"/>
        <path d="M371.33,26.69V19.53h.88V22.1a2,2,0,0,1,1.55-.71,2.15,2.15,0,0,1,1,.22,1.31,1.31,0,0,1,.6.63,2.9,2.9,0,0,1,.19,1.16v3.29h-.88V23.4a1.36,1.36,0,0,0-.29-1,1.06,1.06,0,0,0-.81-.3,1.46,1.46,0,0,0-.73.2,1.18,1.18,0,0,0-.49.55,2.47,2.47,0,0,0-.15,1v2.84Z"/>
      </g>
      <g id="axes_3" data-name="axes 3">
        <g id="line2d_103" data-name="line2d 103">
          <path class="cls-1" d="M293.1,70.69l1.65,1.67L296.2,74l1.25,1.65,1.06,1.62.86,1.62.67,1.6.47,1.58.27,1.57.08,1.55-.11,1.54-.31,1.53-.51,1.51-.7,1.49-.9,1.49-1.09,1.46L296,95.67l-1.48,1.44-1.68,1.42-1.88,1.41"/>
        </g>
        <g id="line2d_125" data-name="line2d 125">
          <path class="cls-1" d="M378.34,57.84l-2.27.59-2.16.42-2.05.27-1.94.1-1.82-.06-1.72-.22-1.61-.39-1.5-.54-1.38-.71-1.28-.87-1.16-1-1.06-1.2-.94-1.35-.84-1.52-.72-1.68-.61-1.84-.51-2-.39-2.17-.28-2.33"/>
        </g>
        <g id="line2d_93" data-name="line2d 93">
          <path class="cls-1" d="M311.4,47.75l.41,2.31.27,2.18.11,2.06-.05,1.94L312,58.06l-.35,1.7-.5,1.57-.66,1.46-.81,1.32-1,1.21-1.12,1.09-1.27,1-1.42.84-1.58.72-1.73.59-1.88.48-2,.35-2.19.23-2.35.11"/>
        </g>
        <g id="line2d_114" data-name="line2d 114">
          <path class="cls-1" d="M317.84,133.71l.71.33.71.32.72.32.72.3.73.29.73.27.74.27.74.25.75.25.75.23.75.22.76.2.75.2.77.18.76.17.77.16.77.15.77.14.77.12"/>
        </g>
        <g id="line2d_120" data-name="line2d 120">
          <path class="cls-1" d="M373.28,125.35l-.75-2.22-.59-2.12-.42-2-.24-1.93-.08-1.83.09-1.73.26-1.63.44-1.53.6-1.44.77-1.33.94-1.24,1.11-1.14,1.29-1,1.45-.94,1.62-.85,1.79-.75,2-.65,2.13-.55,2.3-.46"/>
        </g>
        <g id="line2d_124" data-name="line2d 124">
          <path class="cls-1" d="M385.76,70.69l-.29-.73-.31-.72-.31-.72-.33-.71-.33-.71-.35-.7-.36-.7-.37-.69-.38-.69-.4-.67-.4-.68-.41-.66-.42-.66-.44-.65-.44-.65-.46-.64-.46-.63-.47-.62-.49-.62"/>
        </g>
        <g>
          <g id="line2d_87" data-name="line2d 87">
            <path class="cls-3" d="M339.43,39.1l.12,5.17.36,5,.6,4.9.83,4.75,1.08,4.62,1.31,4.48,1.55,4.34,1.79,4.21,2,4.07,2.27,3.92,2.51,3.8L356.62,92l3,3.51,3.22,3.38,3.46,3.24,3.71,3.1,3.94,3,4.17,2.82,4.42,2.69"/>
          </g>
          <g id="line2d_88" data-name="line2d 88">
            <path class="cls-3" d="M339.43,39.1l.14,5.09L340,49l.69,4.49,1,4.2,1.24,3.91,1.51,3.61,1.79,3.31,2.06,3,2.34,2.72,2.61,2.42,2.89,2.13,3.16,1.83,3.43,1.53,3.72,1.24,4,.94,4.27.65,4.53.35,4.81,0,5.09-.24"/>
          </g>
          <g id="line2d_89" data-name="line2d 89">
            <path class="cls-3" d="M339.43,39.1l-.06,5.23-.18,5.19-.3,5.17-.42,5.15L337.94,65,337.28,70l-.78,5.06-.9,5-1,5-1.14,5-1.26,4.95L330.82,100l-1.5,4.9-1.61,4.87L326,114.61l-1.85,4.81-2,4.79-2.1,4.76-2.21,4.74"/>
          </g>
          <g id="line2d_90" data-name="line2d 90">
            <path class="cls-3" d="M324.76,41.31l1.58,4.76L328,50.34l1.73,3.78,1.8,3.29,1.88,2.79,1.95,2.3,2,1.82,2.09,1.32,2.18.83,2.25.34,2.32-.16,2.39-.64,2.47-1.13,2.55-1.63,2.61-2.12,2.7-2.61,2.76-3.1,2.84-3.59,2.92-4.08"/>
          </g>
          <g id="line2d_91" data-name="line2d 91">
            <path class="cls-3" d="M324.76,41.31l1.63,4.83,1.81,4.46,2,4.09,2.16,3.73,2.34,3.37,2.5,3,2.69,2.64,2.86,2.27,3,1.91L349,73.16l3.39,1.18,3.56.82,3.74.45,3.91.09,4.09-.27,4.26-.64,4.44-1L381,72.42l4.79-1.73"/>
          </g>
          <g id="line2d_92" data-name="line2d 92">
            <path class="cls-3" d="M324.76,41.31l1.53,5,1.48,5,1.44,5,1.41,5,1.36,5,1.32,5.05,1.29,5.07,1.24,5.07,1.2,5.09,1.16,5.09,1.13,5.1L340.4,102l1,5.12,1,5.13,1,5.14.93,5.15.88,5.16.84,5.16.8,5.18"/>
          </g>
          <g id="line2d_94" data-name="line2d 94">
            <path class="cls-3" d="M311.4,47.75l3,4.24,3.13,4.08L320.76,60l3.35,3.75,3.46,3.58,3.58,3.41L334.83,74l3.81,3.08L342.55,80l4,2.75,4.14,2.58L355,87.7,359.35,90,363.83,92l4.6,1.92,4.71,1.75L378,97.28l4.94,1.41L388,99.94"/>
          </g>
          <g id="line2d_95" data-name="line2d 95">
            <path class="cls-3" d="M311.4,47.75l2.89,4.35,2.78,4.39,2.67,4.45,2.55,4.48L324.72,70l2.33,4.58,2.21,4.62,2.09,4.66,2,4.71,1.87,4.75,1.75,4.8,1.64,4.85,1.52,4.89,1.41,4.93,1.29,5,1.18,5,1.07,5.07.95,5.11.84,5.16"/>
          </g>
          <g id="line2d_96" data-name="line2d 96">
            <path class="cls-3" d="M311.4,47.75l3,4.16,3.1,3.84,3.21,3.51,3.3,3.17,3.41,2.85,3.51,2.52,3.61,2.2,3.71,1.86,3.81,1.54L346,74.61l4,.87,4.12.55,4.21.23,4.32-.11,4.42-.44,4.53-.76,4.62-1.09,4.72-1.42,4.83-1.75"/>
          </g>
          <g id="line2d_97" data-name="line2d 97">
            <path class="cls-3" d="M311.4,47.75l2.73,4.2,2.31,4,1.87,3.71,1.45,3.45,1,3.22.59,3,.15,2.71-.27,2.47-.71,2.21-1.14,2-1.56,1.72-2,1.47L313.4,83l-2.85,1-3.29.73-3.72.48-4.15.23-4.58,0-5-.27"/>
          </g>
          <g id="line2d_98" data-name="line2d 98">
            <path class="cls-3" d="M311.4,47.75l3,4.13,3,3.73,3.1,3.32,3.16,2.93,3.23,2.53,3.28,2.13,3.34,1.73,3.4,1.33,3.47.94,3.52.53,3.58.13,3.65-.27,3.7-.67,3.77-1.07,3.82-1.46,3.89-1.87,3.94-2.27,4-2.67,4.06-3.06"/>
          </g>
          <g id="line2d_99" data-name="line2d 99">
            <path class="cls-3" d="M311.4,47.75l3,4.1,2.95,3.64,2.95,3.19,2.95,2.74,2.95,2.27,3,1.83,2.95,1.36,3,.92,2.95.45h3l2.95-.45,2.95-.92,2.95-1.36,2.95-1.83,3-2.27,2.95-2.74,2.95-3.19,3-3.64,3-4.1"/>
          </g>
          <g id="line2d_100" data-name="line2d 100">
            <path class="cls-3" d="M300.52,57.84l3.87,3.25,3.41,3.21,3,3.18,2.51,3.15,2.05,3.11,1.6,3.08,1.14,3.05.69,3,.23,3-.22,2.94-.67,2.91L317,94.58l-1.59,2.84-2,2.81-2.5,2.77-2.94,2.74-3.4,2.7-3.86,2.68-4.31,2.63"/>
          </g>
          <g id="line2d_101" data-name="line2d 101">
            <path class="cls-3" d="M300.52,57.84l3.93,3.3L308,64.52,311.3,68l2.92,3.54,2.59,3.61,2.25,3.68L321,82.58l1.58,3.84,1.25,3.91.91,4,.58,4.07.24,4.14-.1,4.22-.43,4.3-.76,4.38-1.1,4.45-1.44,4.53L319.94,129l-2.1,4.68"/>
          </g>
          <g id="line2d_102" data-name="line2d 102">
            <path class="cls-3" d="M300.52,57.84l4,3.32,3.83,3.41L312,68.09l3.49,3.62,3.31,3.72L322,79.25l3,3.92,2.78,4,2.62,4.12,2.44,4.23L335,99.86l2.09,4.43,1.91,4.52,1.74,4.63,1.57,4.72,1.39,4.83,1.22,4.93,1,5,.87,5.13"/>
          </g>
          <g id="line2d_104" data-name="line2d 104">
            <path class="cls-3" d="M293.1,70.69l4.79,1.73,4.62,1.37,4.43,1,4.27.64,4.08.27,3.92-.09,3.73-.45,3.56-.82,3.39-1.18,3.21-1.55,3-1.91L339,67.43l2.69-2.64,2.51-3,2.33-3.37,2.16-3.73,2-4.09,1.81-4.46,1.63-4.83"/>
          </g>
          <g id="line2d_105" data-name="line2d 105">
            <path class="cls-3" d="M293.1,70.69l4.66,2L302,74.72l3.77,2.16,3.32,2.27,2.87,2.37L314.37,84l2,2.58,1.54,2.67L319,92l.66,2.87.21,3-.23,3.08-.68,3.18-1.12,3.29-1.56,3.38-2,3.49-2.45,3.58-2.9,3.69-3.34,3.79"/>
          </g>
          <g id="line2d_107" data-name="line2d 107">
            <path class="cls-3" d="M293.1,70.69,298,72.46,302.78,74l4.77,1.23,4.73,1,4.69.69,4.65.41,4.61.14,4.57-.13,4.53-.4,4.49-.68,4.44-1,4.4-1.22L353,72.53l4.32-1.77,4.28-2,4.24-2.31,4.2-2.58L374.23,61l4.11-3.13"/>
          </g>
          <g id="line2d_108" data-name="line2d 108">
            <path class="cls-3" d="M289.8,85.15l5.23.37,5.22.33,5.23.29,5.22.25,5.22.2,5.23.17,5.22.12,5.23.08,5.22,0H342l5.23,0,5.22-.08,5.23-.12,5.22-.17,5.22-.2,5.23-.25,5.22-.29,5.23-.33,5.22-.37"/>
          </g>
          <g id="line2d_109" data-name="line2d 109">
            <path class="cls-3" d="M289.8,85.15l5,.5,4.63.74,4.24,1,3.84,1.19L311,90l3.06,1.65,2.65,1.87,2.27,2.1,1.87,2.33,1.47,2.55,1.09,2.79.68,3,.29,3.24-.1,3.47-.5,3.69-.89,3.92-1.28,4.15-1.69,4.38-2.07,4.61"/>
          </g>
          <g id="line2d_110" data-name="line2d 110">
            <path class="cls-3" d="M296.33,113.75l4.44-2.41,4.24-2,4-1.59,3.85-1.18,3.64-.77,3.45-.37,3.26,0,3.05.46,2.86.87,2.66,1.28,2.46,1.69,2.26,2.11,2.07,2.51,1.86,2.92,1.67,3.33,1.48,3.75,1.27,4.15L346,133.1l.88,5"/>
          </g>
          <g id="line2d_111" data-name="line2d 111">
            <path class="cls-3" d="M296.33,113.75l4.53-2.63,4.5-2.68,4.48-2.7,4.45-2.74,4.44-2.77,4.4-2.81,4.39-2.84,4.36-2.87,4.34-2.91,4.32-2.94,4.29-3,4.27-3,4.25-3.05,4.22-3.08,4.2-3.11L366,67.48l4.15-3.18,4.13-3.21,4.11-3.25"/>
          </g>
          <g id="line2d_112" data-name="line2d 112">
            <path class="cls-3" d="M296.33,113.75l4.5-2.66,4.41-2.76,4.33-2.84,4.24-2.94,4.16-3,4.08-3.11,4-3.21L330,89.92l3.82-3.39,3.75-3.47,3.66-3.56,3.57-3.66,3.5-3.74,3.41-3.83L355,64.34l3.25-4,3.16-4.1,3.07-4.2,3-4.28"/>
          </g>
          <g id="line2d_113" data-name="line2d 113">
            <path class="cls-3" d="M296.33,113.75l4.46-2.68,4.3-2.81,4.14-2.93,4-3.06,3.83-3.19,3.67-3.31,3.51-3.43,3.36-3.56,3.19-3.69,3-3.81,2.89-3.94,2.72-4.06L342,69.09l2.41-4.32,2.25-4.44,2.1-4.57,1.94-4.69,1.78-4.82,1.62-4.94"/>
          </g>
          <g id="line2d_115" data-name="line2d 115">
            <path class="cls-3" d="M317.84,133.71l2.31-4.5,2.37-4,2.44-3.6,2.51-3.14,2.58-2.69,2.65-2.24,2.71-1.79,2.79-1.35,2.85-.89L344,109l3,0,3.05.46,3.13.91,3.18,1.36,3.26,1.81,3.33,2.27,3.39,2.71,3.46,3.17,3.53,3.61"/>
          </g>
          <g id="line2d_116" data-name="line2d 116">
            <path class="cls-3" d="M332,138.08l.87-5.13,1-5,1.22-4.93,1.39-4.83,1.57-4.72,1.74-4.63,1.91-4.52,2.09-4.43,2.27-4.32,2.44-4.23,2.61-4.12,2.79-4,3-3.92L360,75.43l3.31-3.72,3.49-3.62,3.66-3.52,3.83-3.41,4-3.32"/>
          </g>
          <g id="line2d_117" data-name="line2d 117">
            <path class="cls-3" d="M346.85,138.08l-.63-5-.31-4.68V124l.31-4,.61-3.68.92-3.34,1.24-3,1.54-2.67,1.85-2.35,2.17-2L357,101.3l2.78-1.33,3.1-1,3.4-.67L370,98h4l4.34.33,4.64.66,4.95,1"/>
          </g>
          <g id="line2d_118" data-name="line2d 118">
            <path class="cls-3" d="M361,133.71l-2.1-4.68-1.77-4.61-1.44-4.53-1.1-4.45-.76-4.38-.43-4.3-.09-4.22.24-4.14.57-4.07.91-4,1.25-3.91,1.58-3.84,1.92-3.77,2.25-3.68,2.59-3.61L367.56,68l3.26-3.46,3.59-3.38,3.93-3.3"/>
          </g>
          <g id="line2d_119" data-name="line2d 119">
            <path class="cls-3" d="M361,133.71,359,129.14l-1.69-4.25-1.31-4-.91-3.63-.52-3.33-.14-3,.25-2.7.64-2.4,1-2.09,1.42-1.77,1.8-1.47,2.2-1.16,2.58-.85,3-.53,3.36-.23,3.75.08,4.13.39,4.53.7,4.91,1"/>
          </g>
          <g id="line2d_121" data-name="line2d 121">
            <path class="cls-3" d="M373.28,125.35l-3.34-3.79-2.9-3.69-2.45-3.58-2-3.49L361,107.42l-1.12-3.29-.68-3.18L359,97.87l.21-3,.66-2.87,1.1-2.78,1.55-2.67,2-2.58,2.43-2.47,2.88-2.37,3.32-2.27,3.76-2.16,4.21-2.07,4.66-2"/>
          </g>
          <g id="line2d_122" data-name="line2d 122">
            <path class="cls-3" d="M382.53,113.75l-4.31-2.63-3.85-2.68-3.4-2.7L368,103l-2.49-2.77-2-2.81-1.58-2.84-1.13-2.87-.68-2.91-.22-2.94.23-3,.69-3L362,76.82l1.59-3.08,2-3.11,2.51-3.15,3-3.18,3.41-3.21,3.87-3.25"/>
          </g>
          <g id="line2d_123" data-name="line2d 123">
            <path class="cls-3" d="M388,99.94l-4.89-1.25-4.48-1.41-4-1.58L370.91,94,367.72,92,364.94,90l-2.35-2.25-1.93-2.41-1.5-2.58L358.08,80l-.65-2.91L357.2,74l.19-3.25.62-3.41,1.05-3.58L360.52,60l1.89-3.91L364.73,52l2.74-4.24"/>
          </g>
        </g>
        <g id="line2d_106" data-name="line2d 106">
          <g id="line2d_106-2" data-name="line2d 106">
            <path class="cls-4" d="M293.1,70.69,298,72.62l4.85,2,4.83,2,4.82,2,4.79,2.08L322,82.84,326.8,85l4.74,2.2,4.73,2.22L341,91.68,345.66,94l4.68,2.34L355,98.7l4.63,2.42,4.62,2.45,4.6,2.49,4.58,2.53,4.57,2.56,4.54,2.6"/>
          </g>
          <g>
            <polyline class="cls-3" points="293.61 71.49 298.47 73.42 303.32 75.39 308.15 77.39 312.97 79.44 317.76 81.52 322.54 83.64 327.3 85.79 332.05 87.98 336.77 90.22 341.48 92.48 346.17 94.78 350.84 97.13 355.49 99.5 360.12 101.92 364.74 104.37 369.34 106.86 373.92 109.39 378.49 111.95 383.03 114.55"/>
            <polyline class="cls-5" points="293.11 70.69 297.97 72.62 302.82 74.59 307.65 76.59 312.47 78.64 317.26 80.72 322.04 82.84 326.8 84.99 331.55 87.19 336.27 89.42 340.98 91.68 345.67 93.98 350.34 96.33 354.99 98.7 359.62 101.12 364.24 103.57 368.84 106.06 373.42 108.59 377.99 111.15 382.53 113.75"/>
          </g>
        </g>
        <g id="line2d_126" data-name="line2d 126">
          <g>
            <path class="cls-7" d="M339.43,41.23a2.13,2.13,0,1,0,0-4.26,2.1,2.1,0,0,0-1.5.62,2.12,2.12,0,0,0,0,3A2.1,2.1,0,0,0,339.43,41.23Z"/>
            <path class="cls-7" d="M324.76,43.44a2.12,2.12,0,0,0,2.13-2.13,2.1,2.1,0,0,0-.62-1.5,2.11,2.11,0,0,0-3,0,2.11,2.11,0,0,0-.63,1.5,2.13,2.13,0,0,0,2.13,2.13Z"/>
            <path class="cls-7" d="M311.4,49.88a2.14,2.14,0,1,0-2.13-2.13,2.1,2.1,0,0,0,.62,1.5A2.13,2.13,0,0,0,311.4,49.88Z"/>
            <path class="cls-7" d="M300.52,60a2.17,2.17,0,0,0,1.51-.62,2.13,2.13,0,0,0-1.51-3.64,2.1,2.1,0,0,0-1.5.62,2.13,2.13,0,0,0,1.5,3.64Z"/>
            <path class="cls-8" d="M293.1,72.82a2.15,2.15,0,1,0-1.5-.63A2.13,2.13,0,0,0,293.1,72.82Z"/>
            <path class="cls-7" d="M289.8,87.28a2.17,2.17,0,0,0,1.51-.62A2.13,2.13,0,0,0,289.8,83a2.13,2.13,0,0,0-2.13,2.13,2.13,2.13,0,0,0,2.13,2.13Z"/>
            <path class="cls-7" d="M290.91,102.07a2.13,2.13,0,1,0-1.5-.62A2.13,2.13,0,0,0,290.91,102.07Z"/>
            <path class="cls-7" d="M296.33,115.88a2.12,2.12,0,0,0,2.13-2.13,2.1,2.1,0,0,0-.62-1.5,2.13,2.13,0,0,0-1.51-.63,2.15,2.15,0,0,0-2.13,2.13,2.13,2.13,0,0,0,.63,1.51A2.1,2.1,0,0,0,296.33,115.88Z"/>
            <path class="cls-7" d="M305.58,127.48a2.13,2.13,0,1,0-1.51-3.64,2.15,2.15,0,0,0,0,3A2.14,2.14,0,0,0,305.58,127.48Z"/>
            <path class="cls-7" d="M317.84,135.84a2.15,2.15,0,0,0,2.13-2.13,2.13,2.13,0,0,0-.63-1.51,2.1,2.1,0,0,0-1.5-.62,2.13,2.13,0,0,0,0,4.26Z"/>
            <path class="cls-7" d="M332,140.21a2.13,2.13,0,1,0-2.13-2.13,2.15,2.15,0,0,0,.63,1.51A2.12,2.12,0,0,0,332,140.21Z"/>
            <path class="cls-7" d="M346.85,140.21a2.12,2.12,0,1,0-1.51-.62A2.14,2.14,0,0,0,346.85,140.21Z"/>
            <path class="cls-7" d="M361,135.84a2.15,2.15,0,1,0-1.5-.63A2.13,2.13,0,0,0,361,135.84Z"/>
            <path class="cls-7" d="M373.28,127.48a2.13,2.13,0,1,0-1.5-3.64,2.12,2.12,0,0,0,0,3A2.12,2.12,0,0,0,373.28,127.48Z"/>
            <path class="cls-8" d="M382.53,115.88a2.12,2.12,0,0,0,2.13-2.13,2.1,2.1,0,0,0-.62-1.5,2.13,2.13,0,0,0-3.64,1.5,2.17,2.17,0,0,0,.62,1.51A2.14,2.14,0,0,0,382.53,115.88Z"/>
            <path class="cls-7" d="M388,102.07a2.13,2.13,0,0,0,0-4.26,2.13,2.13,0,1,0,0,4.26Z"/>
            <path class="cls-7" d="M389.06,87.28a2.19,2.19,0,0,0,1.51-.62,2.13,2.13,0,1,0-3,0A2.17,2.17,0,0,0,389.06,87.28Z"/>
            <path class="cls-7" d="M385.76,72.82a2.13,2.13,0,1,0,0-4.26,2.13,2.13,0,0,0,0,4.26Z"/>
            <path class="cls-7" d="M378.34,60a2.17,2.17,0,0,0,1.51-.62,2.14,2.14,0,0,0-3-3A2.13,2.13,0,0,0,378.34,60Z"/>
            <path class="cls-7" d="M367.47,49.88a2.14,2.14,0,1,0-2.13-2.13,2.1,2.1,0,0,0,.62,1.5A2.13,2.13,0,0,0,367.47,49.88Z"/>
            <path class="cls-7" d="M354.1,43.44a2.12,2.12,0,0,0,2.13-2.13,2.1,2.1,0,0,0-.62-1.5,2.12,2.12,0,0,0-3,0,2.1,2.1,0,0,0-.62,1.5,2.12,2.12,0,0,0,2.13,2.13Z"/>
          </g>
        </g>
      </g>
      <rect class="cls-9" x="5.23" width="109.18" height="177.18"/>
      <path class="cls-7" d="M45.19,43.3a2.13,2.13,0,1,0-1.51-3.64,2.14,2.14,0,0,0,1.51,3.64Z"/>
      <path class="cls-7" d="M31.86,49.72a2.15,2.15,0,1,0-1.5-.63A2.13,2.13,0,0,0,31.86,49.72Z"/>
      <path class="cls-7" d="M21,59.78a2.15,2.15,0,0,0,2.13-2.13,2.13,2.13,0,0,0-.63-1.51,2.1,2.1,0,0,0-1.5-.62,2.13,2.13,0,0,0,0,4.26Z"/>
      <path class="cls-7" d="M10.33,87a2.12,2.12,0,0,0,2.13-2.13,2.12,2.12,0,0,0-.62-1.5,2.12,2.12,0,0,0-3,0A2.13,2.13,0,0,0,10.33,87Z"/>
      <path class="cls-7" d="M108.2,101.76a2.13,2.13,0,1,0-1.5-.62A2.13,2.13,0,0,0,108.2,101.76Z"/>
      <path class="cls-7" d="M109.31,87a2.12,2.12,0,0,0,2.13-2.13,2.12,2.12,0,0,0-.62-1.5,2.12,2.12,0,0,0-3,0A2.13,2.13,0,0,0,109.31,87Z"/>
      <path class="cls-7" d="M106,72.59a2.12,2.12,0,0,0,1.5-.62,2.12,2.12,0,0,0,0-3,2.13,2.13,0,0,0-3.63,1.51A2.12,2.12,0,0,0,106,72.59Z"/>
      <path class="cls-7" d="M98.62,59.78a2.13,2.13,0,1,0-1.51-.63A2.13,2.13,0,0,0,98.62,59.78Z"/>
      <path class="cls-7" d="M74.45,43.3a2.13,2.13,0,1,0-1.51-.63A2.13,2.13,0,0,0,74.45,43.3Z"/>
      <path id="m175c22e66c" class="cls-7" d="M59.82,41.09A2.12,2.12,0,0,0,62,39a2.12,2.12,0,0,0-.62-1.5,2.12,2.12,0,0,0-3,0,2.13,2.13,0,0,0,1.51,3.63Z"/>
      <path class="cls-7" d="M87.78,49.72a2.13,2.13,0,1,0-1.51-.63A2.13,2.13,0,0,0,87.78,49.72Z"/>
      <g>
        <path class="cls-6" d="M0,70.46l1.8-2.11-1-2h.78l.35.74c.13.28.25.54.35.79l1.2-1.53h.86l-1.74,2.1,1.05,2H2.84l-.42-.84c-.09-.18-.19-.41-.3-.67L.89,70.46Z"/>
        <path class="cls-6" d="M110.33,123.52l0-.66a1.58,1.58,0,0,0,.42.06.54.54,0,0,0,.35-.1,1.73,1.73,0,0,0,.38-.48l.22-.41-.69-4.16h.7l.31,2.1c.06.41.12.83.16,1.24l1.85-3.34h.74l-2.64,4.7a3,3,0,0,1-.68.91,1.11,1.11,0,0,1-.68.22A1.62,1.62,0,0,1,110.33,123.52Z"/>
      </g>
      <g>
        <path class="cls-6" d="M138.65,70.46l1.8-2.11-1-2h.78l.35.74c.13.28.25.54.35.79l1.2-1.53H143l-1.74,2.1,1,2h-.78l-.41-.84c-.09-.18-.19-.41-.3-.67l-1.24,1.51Z"/>
        <path class="cls-6" d="M249,123.52l0-.67a1.33,1.33,0,0,0,.43.07.63.63,0,0,0,.35-.1,1.73,1.73,0,0,0,.37-.48l.23-.41-.69-4.16h.69l.32,2.1c.06.41.11.82.16,1.24l1.85-3.34h.74l-2.64,4.7a3.23,3.23,0,0,1-.68.91,1.12,1.12,0,0,1-.69.22A1.61,1.61,0,0,1,249,123.52Z"/>
      </g>
      <g>
        <path class="cls-6" d="M279,70.46l1.8-2.11-1-2h.78l.35.74c.13.28.25.54.35.79l1.2-1.53h.86l-1.74,2.1,1,2h-.78l-.42-.84c-.09-.18-.19-.41-.3-.67l-1.23,1.51Z"/>
        <path class="cls-6" d="M389.3,123.52l.05-.66a1.52,1.52,0,0,0,.42.06.56.56,0,0,0,.35-.1,1.73,1.73,0,0,0,.37-.48l.23-.41-.69-4.16h.7l.31,2.1c.06.41.11.83.16,1.24l1.85-3.34h.74l-2.64,4.7a3.23,3.23,0,0,1-.68.91,1.12,1.12,0,0,1-.69.22A1.61,1.61,0,0,1,389.3,123.52Z"/>
      </g>
      <rect class="cls-10" x="202.95" y="106.52" width="10.24" height="12.36"/>
      <g>
        <path class="cls-11" d="M183.7,112l.71,0a1.31,1.31,0,0,0,.09.52.81.81,0,0,0,.35.36,1.22,1.22,0,0,0,.59.13,1.08,1.08,0,0,0,.7-.19.54.54,0,0,0,.24-.44.48.48,0,0,0-.15-.34,2.12,2.12,0,0,0-.7-.41,6.66,6.66,0,0,1-.72-.34,1.16,1.16,0,0,1-.39-.37.93.93,0,0,1-.13-.5,1.12,1.12,0,0,1,.39-.85,1.59,1.59,0,0,1,1.09-.35,1.75,1.75,0,0,1,1.19.36,1.28,1.28,0,0,1,.42,1l-.69,0a.8.8,0,0,0-.26-.59,1,1,0,0,0-.71-.22.86.86,0,0,0-.57.17.45.45,0,0,0-.2.36.41.41,0,0,0,.17.34,2.71,2.71,0,0,0,.61.32,4.12,4.12,0,0,1,1,.55,1.08,1.08,0,0,1,.34.79,1.18,1.18,0,0,1-.19.61,1.38,1.38,0,0,1-.58.47,2.19,2.19,0,0,1-.92.18,2,2,0,0,1-1.22-.36A1.26,1.26,0,0,1,183.7,112Z"/>
        <path class="cls-11" d="M187.64,113.41l1.19-5.73h.71l-.46,2.2a2.93,2.93,0,0,1,.74-.55,1.57,1.57,0,0,1,.7-.17,1.12,1.12,0,0,1,.8.27,1,1,0,0,1,.28.72,4.83,4.83,0,0,1-.12.81l-.52,2.45h-.7l.53-2.52a5.54,5.54,0,0,0,.11-.68.46.46,0,0,0-.14-.34.63.63,0,0,0-.41-.12,1.39,1.39,0,0,0-.73.2,1.36,1.36,0,0,0-.54.55,3.9,3.9,0,0,0-.37,1.12l-.37,1.79Z"/>
        <path class="cls-11" d="M192.21,111.83a2.88,2.88,0,0,1,.72-2,2,2,0,0,1,1.54-.66,1.62,1.62,0,0,1,1.21.47,1.72,1.72,0,0,1,.46,1.27,3.15,3.15,0,0,1-.29,1.33,2.16,2.16,0,0,1-.82.94,2.11,2.11,0,0,1-1.12.33,1.82,1.82,0,0,1-.88-.21,1.43,1.43,0,0,1-.61-.58A1.82,1.82,0,0,1,192.21,111.83Zm.71-.07a1.25,1.25,0,0,0,.28.89.93.93,0,0,0,.71.3,1.2,1.2,0,0,0,.45-.09,1.24,1.24,0,0,0,.42-.28,2,2,0,0,0,.32-.43,2.31,2.31,0,0,0,.22-.51,2.55,2.55,0,0,0,.12-.75,1.25,1.25,0,0,0-.28-.87.92.92,0,0,0-.71-.31,1.13,1.13,0,0,0-.61.16,1.52,1.52,0,0,0-.49.46,2,2,0,0,0-.33.71A2.88,2.88,0,0,0,192.92,111.76Z"/>
        <path class="cls-11" d="M196.54,113.41l.86-4.15H198l-.18.84a2.82,2.82,0,0,1,.63-.71,1,1,0,0,1,.63-.23,1.16,1.16,0,0,1,.52.16l-.29.65a.69.69,0,0,0-.41-.13,1.12,1.12,0,0,0-.76.41,3.18,3.18,0,0,0-.61,1.49l-.35,1.67Z"/>
        <path class="cls-11" d="M200.85,112.83l-.12.58a2.14,2.14,0,0,1-.49.07,1,1,0,0,1-.67-.21.56.56,0,0,1-.19-.43,5.75,5.75,0,0,1,.1-.63l.51-2.41h-.56l.11-.54h.56l.22-1,.81-.49-.32,1.51h.69l-.11.54h-.69l-.48,2.3a2.77,2.77,0,0,0-.09.52.24.24,0,0,0,.07.19.3.3,0,0,0,.23.07A1.73,1.73,0,0,0,200.85,112.83Z"/>
        <path class="cls-11" d="M201.53,111.69l.15-.71h2.15l-.14.71Z"/>
        <path class="cls-11" d="M204.09,113.41l.86-4.15h.63l-.18.84a3,3,0,0,1,.63-.71,1,1,0,0,1,.63-.23,1.16,1.16,0,0,1,.52.16l-.29.65a.69.69,0,0,0-.41-.13,1.12,1.12,0,0,0-.76.41,3.18,3.18,0,0,0-.61,1.49l-.35,1.67Z"/>
        <path class="cls-11" d="M209.55,112.89a2.93,2.93,0,0,1-.71.46,1.8,1.8,0,0,1-.73.15,1.25,1.25,0,0,1-.92-.34,1.11,1.11,0,0,1-.35-.86,1.24,1.24,0,0,1,.15-.62,1.33,1.33,0,0,1,.42-.43,1.91,1.91,0,0,1,.65-.23,7.21,7.21,0,0,1,.9-.08,2.83,2.83,0,0,0,.95-.14,1.65,1.65,0,0,0,.09-.48.45.45,0,0,0-.18-.38,1.16,1.16,0,0,0-.72-.2,1.26,1.26,0,0,0-.73.2,1.07,1.07,0,0,0-.41.56l-.72-.06a1.86,1.86,0,0,1,.7-1,2,2,0,0,1,1.19-.33,1.89,1.89,0,0,1,1.22.37.87.87,0,0,1,.35.71,4,4,0,0,1-.1.77l-.23,1a3.48,3.48,0,0,0-.11.8,3.28,3.28,0,0,0,.08.57h-.71A2.28,2.28,0,0,1,209.55,112.89Zm.26-1.59a1.68,1.68,0,0,1-.32.09,5.4,5.4,0,0,1-.57.07,4.31,4.31,0,0,0-.87.14.71.71,0,0,0-.51.67.66.66,0,0,0,.2.49.84.84,0,0,0,.59.19,1.35,1.35,0,0,0,.67-.18,1.44,1.44,0,0,0,.52-.52A3.15,3.15,0,0,0,209.81,111.3Z"/>
        <path class="cls-11" d="M211.2,113.41l.87-4.15h.64l-.15.72a3.15,3.15,0,0,1,.78-.62,1.55,1.55,0,0,1,.74-.2,1.08,1.08,0,0,1,.79.28,1,1,0,0,1,.29.73,4.9,4.9,0,0,1-.1.72l-.53,2.52h-.71l.55-2.63a2.67,2.67,0,0,0,.08-.57.42.42,0,0,0-.14-.34.61.61,0,0,0-.41-.12,1.39,1.39,0,0,0-1,.39,2.46,2.46,0,0,0-.62,1.34l-.4,1.93Z"/>
        <path class="cls-11" d="M215.61,113.78l.71.07a.84.84,0,0,0,.06.36.55.55,0,0,0,.21.19,1.41,1.41,0,0,0,.5.08,1.15,1.15,0,0,0,.92-.33,2.5,2.5,0,0,0,.34-1l.07-.33a1.64,1.64,0,0,1-1.17.56,1.36,1.36,0,0,1-1.05-.47,1.83,1.83,0,0,1-.43-1.31,2.72,2.72,0,0,1,1.13-2.17,1.74,1.74,0,0,1,.95-.3,1.38,1.38,0,0,1,1.26.78l.14-.68h.65l-.84,4a3.31,3.31,0,0,1-.36,1,1.37,1.37,0,0,1-.62.57,1.91,1.91,0,0,1-.91.21,2.68,2.68,0,0,1-.86-.13,1.1,1.1,0,0,1-.54-.38,1,1,0,0,1-.18-.57A1.83,1.83,0,0,1,215.61,113.78Zm.88-2.21a2,2,0,0,0,.08.64,1,1,0,0,0,.34.46.81.81,0,0,0,.48.16,1.15,1.15,0,0,0,.69-.25,1.65,1.65,0,0,0,.56-.75,2.58,2.58,0,0,0,.21-1,1.13,1.13,0,0,0-.28-.81.9.9,0,0,0-.7-.31,1,1,0,0,0-.5.14,1.47,1.47,0,0,0-.45.42,2,2,0,0,0-.32.68A2.57,2.57,0,0,0,216.49,111.57Z"/>
        <path class="cls-11" d="M223.15,112l.68.07a2.06,2.06,0,0,1-.68,1,1.86,1.86,0,0,1-1.27.46,1.76,1.76,0,0,1-.85-.21,1.45,1.45,0,0,1-.58-.62,2,2,0,0,1-.2-.93,3,3,0,0,1,.31-1.32,2.27,2.27,0,0,1,.82-1,2.05,2.05,0,0,1,1.08-.31,1.58,1.58,0,0,1,1.18.46,1.74,1.74,0,0,1,.45,1.26,3.52,3.52,0,0,1-.06.63H221a1.8,1.8,0,0,0,0,.22,1.29,1.29,0,0,0,.27.88.83.83,0,0,0,.65.31,1.27,1.27,0,0,0,.72-.24A1.71,1.71,0,0,0,223.15,112Zm-2.06-1h2.33v-.16a1.18,1.18,0,0,0-.26-.81.91.91,0,0,0-.69-.29,1.25,1.25,0,0,0-.82.32A1.81,1.81,0,0,0,221.09,111Z"/>
      </g>
      <polyline class="cls-12" points="221.68 121.43 219.85 116.63 189.03 116.33"/>
      <rect class="cls-10" x="221.7" y="63.11" width="18.35" height="9.02"/>
      <g>
        <path class="cls-13" d="M201.18,69.21l1.19-5.73h.71l-1.19,5.73Z"/>
        <path class="cls-13" d="M203.14,67.64a2.87,2.87,0,0,1,.71-2A2,2,0,0,1,205.4,65a1.64,1.64,0,0,1,1.21.47,1.74,1.74,0,0,1,.46,1.26,3.12,3.12,0,0,1-.29,1.33,2.21,2.21,0,0,1-.83,1,2.09,2.09,0,0,1-1.12.33,1.84,1.84,0,0,1-.88-.21,1.42,1.42,0,0,1-.6-.59A1.75,1.75,0,0,1,203.14,67.64Zm.7-.07a1.32,1.32,0,0,0,.28.89,1,1,0,0,0,.72.3,1.2,1.2,0,0,0,.45-.09,1.36,1.36,0,0,0,.41-.28A2,2,0,0,0,206,68a2.71,2.71,0,0,0,.22-.52,2.48,2.48,0,0,0,.12-.74,1.22,1.22,0,0,0-.29-.87.9.9,0,0,0-.71-.31,1.21,1.21,0,0,0-.6.15,1.58,1.58,0,0,0-.5.47,2,2,0,0,0-.32.71A2.94,2.94,0,0,0,203.84,67.57Z"/>
        <path class="cls-13" d="M207.46,69.21l.87-4.15H209l-.15.73a3,3,0,0,1,.78-.63,1.54,1.54,0,0,1,.74-.19,1.1,1.1,0,0,1,.79.27,1,1,0,0,1,.29.73,4.82,4.82,0,0,1-.1.73l-.53,2.51h-.71l.55-2.63a2.52,2.52,0,0,0,.08-.56.42.42,0,0,0-.14-.34.56.56,0,0,0-.41-.13,1.41,1.41,0,0,0-1,.39,2.5,2.5,0,0,0-.62,1.34l-.4,1.93Z"/>
        <path class="cls-13" d="M211.87,69.59l.72.06a.77.77,0,0,0,0,.37.46.46,0,0,0,.21.18,1.21,1.21,0,0,0,.5.09,1.13,1.13,0,0,0,.92-.33,2.34,2.34,0,0,0,.34-1l.07-.34a1.58,1.58,0,0,1-1.17.56,1.35,1.35,0,0,1-1-.46,1.9,1.9,0,0,1-.43-1.31,2.59,2.59,0,0,1,.34-1.29,2.53,2.53,0,0,1,.79-.88,1.74,1.74,0,0,1,1-.3,1.38,1.38,0,0,1,1.26.77l.14-.68h.65l-.84,4a3.31,3.31,0,0,1-.36,1,1.53,1.53,0,0,1-.61.57,2.11,2.11,0,0,1-.92.2,2.47,2.47,0,0,1-.86-.13,1.09,1.09,0,0,1-.54-.37,1,1,0,0,1-.18-.57A1.49,1.49,0,0,1,211.87,69.59Zm.88-2.21a1.78,1.78,0,0,0,.09.64.93.93,0,0,0,.33.46.81.81,0,0,0,.48.15,1.2,1.2,0,0,0,.69-.24,1.68,1.68,0,0,0,.56-.76,2.54,2.54,0,0,0,.21-1,1.15,1.15,0,0,0-.28-.82.92.92,0,0,0-.7-.3,1,1,0,0,0-.5.14,1.47,1.47,0,0,0-.45.42,2,2,0,0,0-.32.68A2.57,2.57,0,0,0,212.75,67.38Z"/>
        <path class="cls-13" d="M216.46,67.49l.15-.7h2.16l-.15.7Z"/>
        <path class="cls-13" d="M219,69.21l.87-4.15h.63l-.18.85a2.66,2.66,0,0,1,.63-.71,1,1,0,0,1,.62-.23,1.23,1.23,0,0,1,.52.15l-.29.66a.65.65,0,0,0-.4-.14,1.08,1.08,0,0,0-.76.42,3,3,0,0,0-.61,1.49l-.36,1.66Z"/>
        <path class="cls-13" d="M224.48,68.7a2.89,2.89,0,0,1-.7.46,1.8,1.8,0,0,1-.73.15,1.33,1.33,0,0,1-.93-.34,1.18,1.18,0,0,1-.35-.87,1.2,1.2,0,0,1,.16-.61,1.24,1.24,0,0,1,.42-.43,1.86,1.86,0,0,1,.64-.24,8.14,8.14,0,0,1,.91-.07,3.12,3.12,0,0,0,.95-.14,1.59,1.59,0,0,0,.08-.48.48.48,0,0,0-.18-.39,1.13,1.13,0,0,0-.72-.19,1.22,1.22,0,0,0-.72.19,1.17,1.17,0,0,0-.42.57l-.71-.07a1.86,1.86,0,0,1,.69-.94,2.07,2.07,0,0,1,1.2-.33,1.85,1.85,0,0,1,1.22.37.86.86,0,0,1,.34.71,3.32,3.32,0,0,1-.1.77l-.23,1a4.05,4.05,0,0,0-.11.8,2.51,2.51,0,0,0,.09.56h-.71A2.79,2.79,0,0,1,224.48,68.7Zm.27-1.59a1.68,1.68,0,0,1-.32.09l-.57.07a4.49,4.49,0,0,0-.87.13.81.81,0,0,0-.39.27.73.73,0,0,0-.12.41.63.63,0,0,0,.2.49.87.87,0,0,0,.59.19,1.29,1.29,0,0,0,.67-.19,1.25,1.25,0,0,0,.51-.51A3,3,0,0,0,224.75,67.11Z"/>
        <path class="cls-13" d="M226.14,69.21l.86-4.15h.64l-.15.73a3.36,3.36,0,0,1,.78-.63A1.58,1.58,0,0,1,229,65a1.13,1.13,0,0,1,.79.27,1,1,0,0,1,.28.73,3.79,3.79,0,0,1-.1.73l-.53,2.51h-.7l.55-2.63a3.32,3.32,0,0,0,.08-.56.46.46,0,0,0-.14-.34.58.58,0,0,0-.41-.13,1.38,1.38,0,0,0-1,.39,2.5,2.5,0,0,0-.62,1.34l-.41,1.93Z"/>
        <path class="cls-13" d="M230.55,69.59l.71.06a.75.75,0,0,0,.06.37.38.38,0,0,0,.21.18,1.18,1.18,0,0,0,.5.09A1.16,1.16,0,0,0,233,70a2.68,2.68,0,0,0,.34-1l.07-.34a1.62,1.62,0,0,1-1.17.56,1.39,1.39,0,0,1-1.06-.46,1.89,1.89,0,0,1-.42-1.31,2.58,2.58,0,0,1,.33-1.29,2.55,2.55,0,0,1,.8-.88,1.72,1.72,0,0,1,.95-.3,1.4,1.4,0,0,1,1.26.77l.14-.68h.65l-.84,4a3.31,3.31,0,0,1-.36,1,1.62,1.62,0,0,1-.62.57,2,2,0,0,1-.92.2,2.47,2.47,0,0,1-.86-.13,1.09,1.09,0,0,1-.54-.37,1,1,0,0,1-.17-.57A.75.75,0,0,1,230.55,69.59Zm.88-2.21a2.08,2.08,0,0,0,.08.64,1,1,0,0,0,.34.46.81.81,0,0,0,.48.15,1.2,1.2,0,0,0,.69-.24,1.76,1.76,0,0,0,.56-.76,2.54,2.54,0,0,0,.21-1,1.2,1.2,0,0,0-.28-.82.94.94,0,0,0-.71-.3,1.05,1.05,0,0,0-.5.14,1.47,1.47,0,0,0-.45.42,1.94,1.94,0,0,0-.31.68A2.13,2.13,0,0,0,231.43,67.38Z"/>
        <path class="cls-13" d="M238.08,67.8l.69.07a2.09,2.09,0,0,1-.68,1,1.88,1.88,0,0,1-1.27.47,1.76,1.76,0,0,1-.85-.22,1.42,1.42,0,0,1-.59-.62,2.11,2.11,0,0,1-.2-.92,2.92,2.92,0,0,1,.32-1.32,2.26,2.26,0,0,1,.81-1,2,2,0,0,1,1.08-.31,1.57,1.57,0,0,1,1.19.46,1.77,1.77,0,0,1,.44,1.26,4.44,4.44,0,0,1-.05.62h-3.06a1.77,1.77,0,0,0,0,.22,1.3,1.3,0,0,0,.27.89.83.83,0,0,0,.65.31,1.24,1.24,0,0,0,.71-.24A1.53,1.53,0,0,0,238.08,67.8Zm-2.05-1h2.32a1,1,0,0,0,0-.15,1.14,1.14,0,0,0-.27-.82.87.87,0,0,0-.68-.28,1.26,1.26,0,0,0-.83.31A1.84,1.84,0,0,0,236,66.77Z"/>
      </g>
      <polyline class="cls-14" points="205.36 77.93 207.19 72.59 228.65 72.59"/>
      <g>
        <path class="cls-6" d="M37.34,114.12l.71,0a1.29,1.29,0,0,0,.09.51.76.76,0,0,0,.35.36,1.22,1.22,0,0,0,.59.13,1.15,1.15,0,0,0,.7-.18.56.56,0,0,0,.23-.45.48.48,0,0,0-.14-.34,2.12,2.12,0,0,0-.7-.41,5.13,5.13,0,0,1-.72-.34,1.07,1.07,0,0,1-.39-.37.94.94,0,0,1-.14-.5,1.08,1.08,0,0,1,.39-.84,1.57,1.57,0,0,1,1.1-.36,1.7,1.7,0,0,1,1.19.37,1.24,1.24,0,0,1,.42,1l-.69,0a.78.78,0,0,0-.27-.59,1,1,0,0,0-.7-.22.86.86,0,0,0-.57.17.46.46,0,0,0-.21.36.45.45,0,0,0,.18.35,3.6,3.6,0,0,0,.6.31,4.06,4.06,0,0,1,1,.55,1.07,1.07,0,0,1,.33.79,1.09,1.09,0,0,1-.19.61,1.29,1.29,0,0,1-.57.47,2.19,2.19,0,0,1-.92.18,2,2,0,0,1-1.22-.36A1.23,1.23,0,0,1,37.34,114.12Z"/>
        <path class="cls-6" d="M44.32,114.13l.69.07a2.14,2.14,0,0,1-.68,1,1.87,1.87,0,0,1-1.27.46,1.76,1.76,0,0,1-.85-.21,1.47,1.47,0,0,1-.59-.62,2.12,2.12,0,0,1-.2-.93,3,3,0,0,1,.32-1.32,2.32,2.32,0,0,1,.81-1,2.11,2.11,0,0,1,1.08-.31,1.6,1.6,0,0,1,1.19.46,1.73,1.73,0,0,1,.44,1.26,3.41,3.41,0,0,1,0,.63H42.15a1.7,1.7,0,0,0,0,.22,1.33,1.33,0,0,0,.27.89.82.82,0,0,0,.65.3,1.24,1.24,0,0,0,.71-.24A1.55,1.55,0,0,0,44.32,114.13Zm-2-1H44.6v-.16a1.13,1.13,0,0,0-.27-.81.88.88,0,0,0-.68-.29,1.27,1.27,0,0,0-.83.32A1.91,1.91,0,0,0,42.27,113.1Z"/>
        <path class="cls-6" d="M45.38,117.13l1.2-5.74h.65l-.12.58a2.52,2.52,0,0,1,.65-.53,1.31,1.31,0,0,1,1.59.29,1.75,1.75,0,0,1,.39,1.23,3,3,0,0,1-.22,1.18A2.56,2.56,0,0,1,49,115a2.1,2.1,0,0,1-.64.48,1.51,1.51,0,0,1-.65.15,1.27,1.27,0,0,1-1.16-.76l-.47,2.26Zm1.39-3.29a2.28,2.28,0,0,0,.07.65,1,1,0,0,0,.32.41.91.91,0,0,0,.52.15,1.12,1.12,0,0,0,1-.68A2.92,2.92,0,0,0,49,113a1.19,1.19,0,0,0-.26-.82.78.78,0,0,0-.62-.29.89.89,0,0,0-.5.15,1.31,1.31,0,0,0-.43.42,2.68,2.68,0,0,0-.33.7A2.62,2.62,0,0,0,46.77,113.84Z"/>
        <path class="cls-6" d="M53,115a2.51,2.51,0,0,1-.71.46,1.75,1.75,0,0,1-.72.15,1.27,1.27,0,0,1-.93-.34,1.23,1.23,0,0,1,.23-1.91,1.85,1.85,0,0,1,.64-.23,6.18,6.18,0,0,1,.9-.07,3.13,3.13,0,0,0,1-.15,2,2,0,0,0,.08-.48.45.45,0,0,0-.18-.38,1.12,1.12,0,0,0-.72-.2,1.26,1.26,0,0,0-.73.2,1.13,1.13,0,0,0-.41.56l-.71-.06a1.83,1.83,0,0,1,.69-.95,2,2,0,0,1,1.2-.33,1.86,1.86,0,0,1,1.21.37.87.87,0,0,1,.35.71,3.32,3.32,0,0,1-.1.77l-.23,1a4.15,4.15,0,0,0-.11.8,2.67,2.67,0,0,0,.09.57h-.72A3,3,0,0,1,53,115Zm.26-1.59a1.5,1.5,0,0,1-.32.09,5.49,5.49,0,0,1-.56.07,4.31,4.31,0,0,0-.88.14.72.72,0,0,0-.38.27.71.71,0,0,0-.13.4.64.64,0,0,0,.21.49.8.8,0,0,0,.58.19,1.38,1.38,0,0,0,.68-.18,1.49,1.49,0,0,0,.51-.52A3.15,3.15,0,0,0,53.23,113.43Z"/>
        <path class="cls-6" d="M54.62,115.54l.87-4.15h.62l-.17.85a2.72,2.72,0,0,1,.63-.72,1,1,0,0,1,.62-.23,1.13,1.13,0,0,1,.52.16l-.29.65A.64.64,0,0,0,57,112a1.1,1.1,0,0,0-.76.41,3.12,3.12,0,0,0-.61,1.49l-.36,1.67Z"/>
        <path class="cls-6" d="M60.08,115a2.62,2.62,0,0,1-.7.46,1.8,1.8,0,0,1-.73.15,1.29,1.29,0,0,1-.93-.34,1.15,1.15,0,0,1-.35-.86,1.24,1.24,0,0,1,.16-.62,1.33,1.33,0,0,1,.42-.43,1.85,1.85,0,0,1,.64-.23,6.22,6.22,0,0,1,.91-.07,3.05,3.05,0,0,0,1-.15,1.59,1.59,0,0,0,.08-.48.45.45,0,0,0-.18-.38,1.12,1.12,0,0,0-.72-.2,1.23,1.23,0,0,0-.72.2,1.15,1.15,0,0,0-.42.56l-.71-.06a1.89,1.89,0,0,1,.69-.95,2.07,2.07,0,0,1,1.2-.33,1.91,1.91,0,0,1,1.22.37.86.86,0,0,1,.34.71,3.32,3.32,0,0,1-.1.77l-.23,1a4.15,4.15,0,0,0-.11.8,2.67,2.67,0,0,0,.09.57h-.71A2.91,2.91,0,0,1,60.08,115Zm.27-1.59a1.68,1.68,0,0,1-.32.09c-.12,0-.31,0-.57.07a4.31,4.31,0,0,0-.87.14.75.75,0,0,0-.39.27.7.7,0,0,0-.12.4.63.63,0,0,0,.2.49.81.81,0,0,0,.58.19,1.38,1.38,0,0,0,.68-.18,1.34,1.34,0,0,0,.51-.52A3.12,3.12,0,0,0,60.35,113.43Z"/>
        <path class="cls-6" d="M63.39,115l-.12.58a2.14,2.14,0,0,1-.49.07,1,1,0,0,1-.67-.21.53.53,0,0,1-.19-.43,4,4,0,0,1,.1-.63l.5-2.41H62l.11-.54h.56l.21-1,.81-.49-.31,1.51H64l-.12.54h-.69l-.48,2.3a4.14,4.14,0,0,0-.09.52.27.27,0,0,0,.07.19A.33.33,0,0,0,63,115,1.73,1.73,0,0,0,63.39,115Z"/>
        <path class="cls-6" d="M63.93,115.54l.87-4.15h.71l-.87,4.15Zm1-4.93.17-.8h.7l-.16.8Z"/>
        <path class="cls-6" d="M65.86,114a2.88,2.88,0,0,1,.72-2,2,2,0,0,1,1.54-.66,1.62,1.62,0,0,1,1.21.47,1.74,1.74,0,0,1,.46,1.27,3.15,3.15,0,0,1-.29,1.33,2.16,2.16,0,0,1-.82.94,2.11,2.11,0,0,1-1.12.33,1.82,1.82,0,0,1-.88-.21,1.43,1.43,0,0,1-.61-.58A1.82,1.82,0,0,1,65.86,114Zm.71-.07a1.25,1.25,0,0,0,.28.89.93.93,0,0,0,.71.3A1.2,1.2,0,0,0,68,115a1.24,1.24,0,0,0,.42-.28,2,2,0,0,0,.32-.43,2.31,2.31,0,0,0,.22-.51,2.55,2.55,0,0,0,.12-.75,1.25,1.25,0,0,0-.28-.87.92.92,0,0,0-.71-.31,1.13,1.13,0,0,0-.61.16,1.52,1.52,0,0,0-.49.46,2,2,0,0,0-.33.71A2.88,2.88,0,0,0,66.57,113.89Z"/>
        <path class="cls-6" d="M70.19,115.54l.86-4.15h.64l-.15.72a3.56,3.56,0,0,1,.78-.62,1.55,1.55,0,0,1,.74-.2,1.06,1.06,0,0,1,.79.28.92.92,0,0,1,.29.73,3.81,3.81,0,0,1-.1.72l-.53,2.52h-.7l.55-2.63a3.55,3.55,0,0,0,.08-.57.46.46,0,0,0-.14-.34.66.66,0,0,0-.42-.12,1.37,1.37,0,0,0-1,.39,2.47,2.47,0,0,0-.63,1.34l-.4,1.93Z"/>
      </g>
      <g>
        <path class="cls-15" d="M61.3,86.08l.7.07a2.37,2.37,0,0,1-.75,1.16,1.8,1.8,0,0,1-1.12.37A1.44,1.44,0,0,1,59,87.25,1.71,1.71,0,0,1,58.62,86a3.44,3.44,0,0,1,.27-1.33,2.13,2.13,0,0,1,.77-1,1.94,1.94,0,0,1,1.14-.34,1.46,1.46,0,0,1,1.06.37,1.35,1.35,0,0,1,.39,1l-.69,0a.85.85,0,0,0-.23-.62.8.8,0,0,0-.59-.22,1.09,1.09,0,0,0-.74.27,1.76,1.76,0,0,0-.49.82,3.36,3.36,0,0,0-.18,1,1.16,1.16,0,0,0,.24.8.72.72,0,0,0,.57.27,1,1,0,0,0,.66-.27A1.71,1.71,0,0,0,61.3,86.08Z"/>
        <path class="cls-15" d="M62.38,87.59l1.19-5.73h.71l-1.19,5.73Z"/>
        <path class="cls-15" d="M67,86.84a2.08,2.08,0,0,1-1.52.84,1.1,1.1,0,0,1-.78-.27.9.9,0,0,1-.3-.68,5.16,5.16,0,0,1,.14-.89l.5-2.4h.7l-.55,2.65a2.48,2.48,0,0,0-.07.52.46.46,0,0,0,.14.36.61.61,0,0,0,.42.14A1.22,1.22,0,0,0,66.3,87a1.69,1.69,0,0,0,.49-.39,1.83,1.83,0,0,0,.33-.58,4.27,4.27,0,0,0,.2-.76l.38-1.79h.71l-.87,4.15h-.65Z"/>
        <path class="cls-15" d="M68.73,86.17l.7,0a1.18,1.18,0,0,0,.1.52.72.72,0,0,0,.34.35,1.25,1.25,0,0,0,.59.14,1.12,1.12,0,0,0,.7-.19.52.52,0,0,0,.1-.79,2.23,2.23,0,0,0-.71-.4,7.24,7.24,0,0,1-.71-.34,1.13,1.13,0,0,1-.4-.38.91.91,0,0,1-.13-.5,1.08,1.08,0,0,1,.39-.84,1.54,1.54,0,0,1,1.09-.35,1.75,1.75,0,0,1,1.19.36,1.27,1.27,0,0,1,.43,1l-.7,0a.8.8,0,0,0-.26-.6,1.08,1.08,0,0,0-.71-.22.9.9,0,0,0-.57.17.5.5,0,0,0-.2.37.45.45,0,0,0,.17.34,2.84,2.84,0,0,0,.61.31,4,4,0,0,1,1,.56,1,1,0,0,1,.34.79,1.09,1.09,0,0,1-.19.6,1.33,1.33,0,0,1-.58.48,2.31,2.31,0,0,1-.91.17,2.15,2.15,0,0,1-1.23-.35A1.27,1.27,0,0,1,68.73,86.17Z"/>
        <path class="cls-15" d="M74.31,87l-.12.57a1.66,1.66,0,0,1-.49.07,1,1,0,0,1-.67-.21.52.52,0,0,1-.19-.42,5.75,5.75,0,0,1,.1-.63L73.45,84h-.56l.11-.55h.56l.22-1,.81-.49-.32,1.51H75l-.11.55h-.69l-.48,2.29a4.48,4.48,0,0,0-.09.52.26.26,0,0,0,.07.2.35.35,0,0,0,.23.06A1.76,1.76,0,0,0,74.31,87Z"/>
        <path class="cls-15" d="M77.93,86.18l.69.07a2.09,2.09,0,0,1-.68,1,1.88,1.88,0,0,1-1.28.46,1.72,1.72,0,0,1-.84-.21,1.42,1.42,0,0,1-.59-.62,2.11,2.11,0,0,1-.2-.92,2.92,2.92,0,0,1,.32-1.32,2.19,2.19,0,0,1,.81-1,2,2,0,0,1,1.08-.31,1.57,1.57,0,0,1,1.19.46,1.77,1.77,0,0,1,.44,1.26,4.44,4.44,0,0,1-.05.62H75.76a1.77,1.77,0,0,0,0,.22,1.31,1.31,0,0,0,.26.89.86.86,0,0,0,.66.31,1.24,1.24,0,0,0,.71-.24A1.53,1.53,0,0,0,77.93,86.18Zm-2.06-1H78.2a1,1,0,0,0,0-.15,1.14,1.14,0,0,0-.27-.82.88.88,0,0,0-.68-.28,1.26,1.26,0,0,0-.83.31A1.92,1.92,0,0,0,75.87,85.15Z"/>
        <path class="cls-15" d="M79.33,87.59l.87-4.15h.62l-.17.85a2.83,2.83,0,0,1,.62-.71,1,1,0,0,1,.63-.23,1.23,1.23,0,0,1,.52.15l-.29.66a.65.65,0,0,0-.4-.14,1.08,1.08,0,0,0-.76.42,3.12,3.12,0,0,0-.62,1.49L80,87.59Z"/>
        <path class="cls-15" d="M82,87.59l.87-4.15h.7l-.86,4.15Zm1-4.93.17-.8h.7l-.17.8Z"/>
        <path class="cls-15" d="M83.77,87.59l.87-4.15h.64l-.15.72a3.56,3.56,0,0,1,.78-.62,1.54,1.54,0,0,1,.74-.19,1.1,1.1,0,0,1,.79.27,1,1,0,0,1,.29.73,3.79,3.79,0,0,1-.1.73l-.53,2.51h-.71L86.94,85a2.67,2.67,0,0,0,.09-.57.41.41,0,0,0-.15-.33.56.56,0,0,0-.41-.13,1.37,1.37,0,0,0-1,.39,2.5,2.5,0,0,0-.63,1.34l-.4,1.93Z"/>
        <path class="cls-15" d="M88.18,88l.72.07a.62.62,0,0,0,.06.36.36.36,0,0,0,.21.19,1.13,1.13,0,0,0,.49.09,1.17,1.17,0,0,0,.93-.33,2.76,2.76,0,0,0,.34-1L91,87a1.66,1.66,0,0,1-1.18.56,1.35,1.35,0,0,1-1-.46,1.89,1.89,0,0,1-.42-1.31,2.58,2.58,0,0,1,.33-1.29,2.46,2.46,0,0,1,.8-.88,1.69,1.69,0,0,1,1-.3,1.38,1.38,0,0,1,1.25.77l.14-.68h.65l-.83,4a3.4,3.4,0,0,1-.36,1,1.57,1.57,0,0,1-.62.58,2.08,2.08,0,0,1-.92.2,2.47,2.47,0,0,1-.86-.13,1,1,0,0,1-.54-.38.91.91,0,0,1-.18-.56A1.8,1.8,0,0,1,88.18,88Zm.89-2.21a1.74,1.74,0,0,0,.08.64,1,1,0,0,0,.33.46A.79.79,0,0,0,90,87a1.21,1.21,0,0,0,.7-.24,1.81,1.81,0,0,0,.55-.76,2.56,2.56,0,0,0,.22-1,1.14,1.14,0,0,0-.29-.82,1,1,0,0,0-1.2-.16,1.47,1.47,0,0,0-.45.42,2.14,2.14,0,0,0-.32.68A2.46,2.46,0,0,0,89.07,85.75Z"/>
      </g>
      <polyline class="cls-16" points="98.18 94.98 93.2 90.8 74.28 90.8"/>
      <g>
        <path class="cls-4" d="M13.62,70.46l1.64,1.67,1.45,1.65L18,75.42,19,77l.86,1.61.67,1.59L21,81.82l.27,1.57.08,1.55-.11,1.53L20.94,88l-.51,1.51L19.73,91l-.89,1.48-1.09,1.46-1.29,1.45L15,96.81l-1.67,1.42-1.87,1.4"/>
        <path class="cls-4" d="M11.44,99.63l2.29.46,2.12.55,2,.65,1.78.75,1.62.84,1.45.94,1.28,1L25.05,106l.93,1.24.77,1.33.6,1.43.44,1.53.26,1.63.09,1.72-.08,1.82-.24,1.92-.42,2-.58,2.12L26.06,125"/>
        <path class="cls-4" d="M26.06,125l2.15-.92,2.07-.74,2-.56,1.9-.39,1.81-.21,1.73,0,1.64.14,1.56.31,1.47.5,1.38.66,1.31.85,1.21,1,1.14,1.2,1.05,1.37,1,1.55.88,1.72.79,1.9.71,2.08.62,2.26"/>
        <path class="cls-4" d="M52.42,137.67l1.26-2L55,133.92l1.32-1.58L57.64,131l1.38-1.2,1.4-1,1.44-.81,1.46-.62,1.49-.42,1.53-.23,1.55,0,1.58.16,1.61.35,1.64.55,1.67.73,1.7.93,1.72,1.13,1.76,1.31,1.78,1.51"/>
        <path class="cls-4" d="M81.35,133.3,81.28,131l.07-2.2.2-2.05.33-1.9.46-1.77.6-1.62.73-1.48.86-1.33,1-1.19,1.13-1.05,1.26-.9,1.39-.76,1.53-.62,1.66-.47,1.79-.34,1.93-.18,2.06,0,2.19.1,2.33.25"/>
      </g>
      <g>
        <g>
          <path class="cls-3" d="M14.12,71l1.64,1.67,1.45,1.65,1.25,1.64,1.05,1.62.86,1.61L21,80.74l.47,1.58.27,1.57.08,1.55L21.75,87l-.31,1.52L20.93,90l-.7,1.49L19.34,93l-1.09,1.46L17,95.88l-1.48,1.43-1.67,1.42-1.87,1.4"/>
          <path class="cls-3" d="M11.94,100.13l2.29.46,2.12.55,2,.65,1.78.75,1.62.84,1.45.94,1.28,1,1.11,1.14.93,1.24.77,1.33.6,1.43.44,1.53.26,1.63.09,1.72-.08,1.82-.24,1.92-.42,2-.58,2.12-.76,2.21"/>
          <path class="cls-3" d="M26.56,125.47l2.15-.92,2.07-.74,2-.56,1.9-.39,1.81-.21,1.73,0,1.64.14,1.56.31,1.47.5,1.38.66,1.31.85,1.21,1,1.14,1.2L49,128.66l1,1.55.88,1.72.79,1.9.71,2.08.62,2.26"/>
          <path class="cls-3" d="M52.92,138.17l1.26-2,1.29-1.78,1.32-1.58,1.35-1.39,1.38-1.2,1.4-1,1.44-.81,1.46-.62,1.49-.42,1.53-.23,1.55,0,1.58.16,1.61.35,1.64.55,1.67.73,1.7.93L78.31,131l1.76,1.31,1.78,1.51"/>
          <path class="cls-3" d="M81.85,133.8l-.07-2.33.07-2.2.2-2.05.33-1.9.46-1.77.6-1.62.73-1.48.86-1.33,1-1.19,1.13-1.05,1.26-.9,1.39-.76,1.53-.62,1.66-.47,1.79-.34,1.93-.18,2.06,0,2.19.1,2.33.25"/>
        </g>
        <g>
          <path class="cls-5" d="M13.62,70.46l1.64,1.67,1.45,1.65L18,75.42,19,77l.86,1.61.67,1.59L21,81.82l.27,1.57.08,1.55-.11,1.53L20.94,88l-.51,1.51L19.73,91l-.89,1.48-1.09,1.46-1.29,1.45L15,96.81l-1.67,1.42-1.87,1.4"/>
          <path class="cls-5" d="M11.44,99.63l2.29.46,2.12.55,2,.65,1.78.75,1.62.84,1.45.94,1.28,1L25.05,106l.93,1.24.77,1.33.6,1.43.44,1.53.26,1.63.09,1.72-.08,1.82-.24,1.92-.42,2-.58,2.12L26.06,125"/>
          <path class="cls-5" d="M26.06,125l2.15-.92,2.07-.74,2-.56,1.9-.39,1.81-.21,1.73,0,1.64.14,1.56.31,1.47.5,1.38.66,1.31.85,1.21,1,1.14,1.2,1.05,1.37,1,1.55.88,1.72.79,1.9.71,2.08.62,2.26"/>
          <path class="cls-5" d="M52.42,137.67l1.26-2L55,133.92l1.32-1.58L57.64,131l1.38-1.2,1.4-1,1.44-.81,1.46-.62,1.49-.42,1.53-.23,1.55,0,1.58.16,1.61.35,1.64.55,1.67.73,1.7.93,1.72,1.13,1.76,1.31,1.78,1.51"/>
          <path class="cls-5" d="M81.35,133.3,81.28,131l.07-2.2.2-2.05.33-1.9.46-1.77.6-1.62.73-1.48.86-1.33,1-1.19,1.13-1.05,1.26-.9,1.39-.76,1.53-.62,1.66-.47,1.79-.34,1.93-.18,2.06,0,2.19.1,2.33.25"/>
        </g>
      </g>
      <path class="cls-8" d="M13.62,72.59a2.13,2.13,0,1,0,0-4.26,2.1,2.1,0,0,0-1.5.62,2.12,2.12,0,0,0,0,3A2.1,2.1,0,0,0,13.62,72.59Z"/>
      <path class="cls-8" d="M11.44,101.76a2.13,2.13,0,1,0-1.51-.62A2.12,2.12,0,0,0,11.44,101.76Z"/>
      <path class="cls-7" d="M16.84,115.54a2.15,2.15,0,0,0,1.51-.63,2.14,2.14,0,0,0,0-3,2.12,2.12,0,0,0-3,0,2.14,2.14,0,0,0,1.51,3.64Z"/>
      <path class="cls-8" d="M26.06,127.1a2.14,2.14,0,0,0,1.51-3.64A2.14,2.14,0,0,0,23.93,125a2.13,2.13,0,0,0,2.13,2.13Z"/>
      <path class="cls-7" d="M38.29,135.44a2.13,2.13,0,1,0-1.51-.63A2.13,2.13,0,0,0,38.29,135.44Z"/>
      <path class="cls-8" d="M52.42,139.8a2.15,2.15,0,1,0-1.5-.63A2.13,2.13,0,0,0,52.42,139.8Z"/>
      <path class="cls-7" d="M67.22,139.8a2.13,2.13,0,1,0-1.51-.63A2.13,2.13,0,0,0,67.22,139.8Z"/>
      <path class="cls-8" d="M81.35,135.44a2.15,2.15,0,1,0-1.5-.63A2.13,2.13,0,0,0,81.35,135.44Z"/>
      <path class="cls-7" d="M93.58,127.1A2.13,2.13,0,0,0,95.71,125a2.14,2.14,0,1,0-3.64,1.51A2.13,2.13,0,0,0,93.58,127.1Z"/>
      <path class="cls-8" d="M102.8,115.54a2.15,2.15,0,0,0,1.51-.63,2.14,2.14,0,0,0,0-3,2.12,2.12,0,0,0-3,0,2.14,2.14,0,0,0,1.51,3.64Z"/>
      <polyline class="cls-17" points="42.37 123.06 40.42 118.88 69.35 118.88"/>
    </g>
  </g>
</svg>
